<mxfile host="app.diagrams.net" modified="2021-12-15T13:57:35.739Z" agent="5.0 (X11)" etag="OM_lo5Y_LUlc98vox0jY" version="15.9.6" type="github" pages="12">
  <diagram name="Overview" id="X1xkp8taMzy9Tt-fy2y1">
    <mxGraphModel dx="2200" dy="764" grid="1" gridSize="10" guides="1" tooltips="1" connect="1" arrows="1" fold="1" page="1" pageScale="1" pageWidth="850" pageHeight="1100" background="none" math="0" shadow="0">
      <root>
        <mxCell id="wn8Pml6cE75ornkcrmNq-0" />
        <mxCell id="wn8Pml6cE75ornkcrmNq-1" parent="wn8Pml6cE75ornkcrmNq-0" />
        <mxCell id="MDNQT7hqEurYdyj0TWIo-0" value="MainProcess" style="rounded=0;whiteSpace=wrap;html=1;sketch=0;strokeColor=#b85450;fillColor=#f8cecc;" parent="wn8Pml6cE75ornkcrmNq-1" vertex="1">
          <mxGeometry x="-480" y="250" width="150.25" height="50" as="geometry" />
        </mxCell>
        <mxCell id="MDNQT7hqEurYdyj0TWIo-3" value="Message Queue" style="edgeStyle=orthogonalEdgeStyle;curved=0;rounded=1;sketch=0;orthogonalLoop=1;jettySize=auto;html=1;fontColor=#143642;strokeColor=#A8201A;fillColor=#FAE5C7;" parent="wn8Pml6cE75ornkcrmNq-1" source="MDNQT7hqEurYdyj0TWIo-1" target="MDNQT7hqEurYdyj0TWIo-0" edge="1">
          <mxGeometry relative="1" as="geometry" />
        </mxCell>
        <mxCell id="MDNQT7hqEurYdyj0TWIo-1" value="dSensors" style="rounded=0;whiteSpace=wrap;html=1;sketch=0;strokeColor=#6c8ebf;fillColor=#dae8fc;" parent="wn8Pml6cE75ornkcrmNq-1" vertex="1">
          <mxGeometry x="-480" y="350" width="150.25" height="50" as="geometry" />
        </mxCell>
      </root>
    </mxGraphModel>
  </diagram>
  <diagram id="HcdjmoZaPBOQuIixv0jm" name="ThreadsPriority">
    <mxGraphModel dx="1350" dy="764" grid="1" gridSize="10" guides="1" tooltips="1" connect="1" arrows="1" fold="1" page="1" pageScale="1" pageWidth="850" pageHeight="1100" math="0" shadow="0">
      <root>
        <mxCell id="skMfZww8q4JZ88V34bja-0" />
        <mxCell id="skMfZww8q4JZ88V34bja-1" parent="skMfZww8q4JZ88V34bja-0" />
        <mxCell id="rdfeNp6-GMCc2yEgZiX8-2" value="PIRisr" style="rounded=1;whiteSpace=wrap;html=1;fillColor=#f8cecc;strokeColor=#b85450;" parent="skMfZww8q4JZ88V34bja-1" vertex="1">
          <mxGeometry x="160" y="200" width="80" height="30" as="geometry" />
        </mxCell>
        <mxCell id="rdfeNp6-GMCc2yEgZiX8-3" value="tLoraRecv" style="rounded=1;whiteSpace=wrap;html=1;fillColor=#ffe6cc;strokeColor=#d79b00;" parent="skMfZww8q4JZ88V34bja-1" vertex="1">
          <mxGeometry x="240" y="200" width="80" height="30" as="geometry" />
        </mxCell>
        <mxCell id="rdfeNp6-GMCc2yEgZiX8-4" value="tRecvSensor" style="rounded=1;whiteSpace=wrap;html=1;fillColor=#fff2cc;strokeColor=#d6b656;" parent="skMfZww8q4JZ88V34bja-1" vertex="1">
          <mxGeometry x="160" y="240" width="80" height="30" as="geometry" />
        </mxCell>
        <mxCell id="rdfeNp6-GMCc2yEgZiX8-5" value="tCamera" style="rounded=1;whiteSpace=wrap;html=1;fillColor=#d5e8d4;strokeColor=#82b366;" parent="skMfZww8q4JZ88V34bja-1" vertex="1">
          <mxGeometry x="160" y="280" width="160" height="30" as="geometry" />
        </mxCell>
        <mxCell id="rdfeNp6-GMCc2yEgZiX8-6" value="tLoraSend" style="rounded=1;whiteSpace=wrap;html=1;fillColor=#f5f5f5;strokeColor=#666666;fontColor=#333333;" parent="skMfZww8q4JZ88V34bja-1" vertex="1">
          <mxGeometry x="240" y="240" width="80" height="30" as="geometry" />
        </mxCell>
        <mxCell id="rdfeNp6-GMCc2yEgZiX8-7" value="tIdle" style="rounded=1;whiteSpace=wrap;html=1;fillColor=#e1d5e7;strokeColor=#9673a6;" parent="skMfZww8q4JZ88V34bja-1" vertex="1">
          <mxGeometry x="160" y="320" width="160" height="30" as="geometry" />
        </mxCell>
        <mxCell id="rdfeNp6-GMCc2yEgZiX8-8" value="" style="shape=flexArrow;endArrow=classic;html=1;rounded=0;fillColor=#f5f5f5;gradientColor=#b3b3b3;strokeColor=#666666;" parent="skMfZww8q4JZ88V34bja-1" edge="1">
          <mxGeometry width="50" height="50" relative="1" as="geometry">
            <mxPoint x="360" y="350" as="sourcePoint" />
            <mxPoint x="360" y="200" as="targetPoint" />
          </mxGeometry>
        </mxCell>
        <mxCell id="rdfeNp6-GMCc2yEgZiX8-9" value="&lt;div&gt;Priority&lt;/div&gt;&lt;div&gt;Level&lt;/div&gt;" style="edgeLabel;html=1;align=center;verticalAlign=middle;resizable=0;points=[];labelBackgroundColor=default;fontStyle=1" parent="rdfeNp6-GMCc2yEgZiX8-8" vertex="1" connectable="0">
          <mxGeometry x="0.5393" y="-2" relative="1" as="geometry">
            <mxPoint x="28" y="46" as="offset" />
          </mxGeometry>
        </mxCell>
      </root>
    </mxGraphModel>
  </diagram>
  <diagram id="p-rT-tHLwDtnmiwZlNcI" name="boot">
    <mxGraphModel dx="1621" dy="437" grid="1" gridSize="10" guides="1" tooltips="1" connect="1" arrows="1" fold="1" page="1" pageScale="1" pageWidth="850" pageHeight="1100" math="0" shadow="0">
      <root>
        <mxCell id="c039ahC2h3WBDTneyoFS-0" />
        <mxCell id="c039ahC2h3WBDTneyoFS-1" parent="c039ahC2h3WBDTneyoFS-0" />
        <mxCell id="c039ahC2h3WBDTneyoFS-2" style="edgeStyle=orthogonalEdgeStyle;curved=0;rounded=1;sketch=0;orthogonalLoop=1;jettySize=auto;html=1;exitX=0.5;exitY=1;exitDx=0;exitDy=0;entryX=0.5;entryY=0;entryDx=0;entryDy=0;fontColor=#143642;strokeColor=#A8201A;fillColor=#FAE5C7;" edge="1" parent="c039ahC2h3WBDTneyoFS-1" source="c039ahC2h3WBDTneyoFS-3">
          <mxGeometry relative="1" as="geometry">
            <mxPoint x="-404.34999999999997" y="140" as="targetPoint" />
          </mxGeometry>
        </mxCell>
        <mxCell id="c039ahC2h3WBDTneyoFS-3" value="InitLora" style="ellipse;whiteSpace=wrap;html=1;fillColor=#FAE5C7;strokeColor=#0F8B8D;fontColor=#143642;fontStyle=1" vertex="1" parent="c039ahC2h3WBDTneyoFS-1">
          <mxGeometry x="-467.34999999999997" y="50" width="125.5" height="50" as="geometry" />
        </mxCell>
        <mxCell id="c039ahC2h3WBDTneyoFS-4" value="end" style="ellipse;whiteSpace=wrap;html=1;fillColor=#FAE5C7;strokeColor=#0F8B8D;fontColor=#143642;fontStyle=1" vertex="1" parent="c039ahC2h3WBDTneyoFS-1">
          <mxGeometry x="-429.09999999999997" y="420" width="48" height="30" as="geometry" />
        </mxCell>
        <mxCell id="c039ahC2h3WBDTneyoFS-5" style="edgeStyle=orthogonalEdgeStyle;rounded=1;orthogonalLoop=1;jettySize=auto;html=1;exitX=0.5;exitY=1;exitDx=0;exitDy=0;entryX=0.5;entryY=0;entryDx=0;entryDy=0;fontSize=11;strokeColor=#A8201A;" edge="1" parent="c039ahC2h3WBDTneyoFS-1" source="c039ahC2h3WBDTneyoFS-6" target="c039ahC2h3WBDTneyoFS-12">
          <mxGeometry relative="1" as="geometry" />
        </mxCell>
        <mxCell id="c039ahC2h3WBDTneyoFS-6" value="LoraBegin(433MHz)" style="shape=process;whiteSpace=wrap;html=1;backgroundOutline=1;rounded=0;sketch=0;fontColor=#143642;strokeColor=#0F8B8D;fillColor=#FAE5C7;fontStyle=1" vertex="1" parent="c039ahC2h3WBDTneyoFS-1">
          <mxGeometry x="-479.84999999999997" y="220" width="150" height="30" as="geometry" />
        </mxCell>
        <mxCell id="c039ahC2h3WBDTneyoFS-7" style="edgeStyle=orthogonalEdgeStyle;rounded=1;orthogonalLoop=1;jettySize=auto;html=1;exitX=0;exitY=0.5;exitDx=0;exitDy=0;entryX=0.5;entryY=0;entryDx=0;entryDy=0;fontSize=11;strokeColor=#A8201A;" edge="1" parent="c039ahC2h3WBDTneyoFS-1" source="c039ahC2h3WBDTneyoFS-12" target="c039ahC2h3WBDTneyoFS-4">
          <mxGeometry relative="1" as="geometry">
            <Array as="points">
              <mxPoint x="-490.05" y="315" />
              <mxPoint x="-490.05" y="400" />
              <mxPoint x="-405.05" y="400" />
            </Array>
          </mxGeometry>
        </mxCell>
        <mxCell id="c039ahC2h3WBDTneyoFS-8" value="Yes" style="edgeLabel;html=1;align=center;verticalAlign=middle;resizable=0;points=[];fontSize=11;" vertex="1" connectable="0" parent="c039ahC2h3WBDTneyoFS-7">
          <mxGeometry x="-0.9043" y="2" relative="1" as="geometry">
            <mxPoint x="-4" y="-2" as="offset" />
          </mxGeometry>
        </mxCell>
        <mxCell id="c039ahC2h3WBDTneyoFS-9" style="edgeStyle=orthogonalEdgeStyle;rounded=1;orthogonalLoop=1;jettySize=auto;html=1;exitX=0.5;exitY=0;exitDx=0;exitDy=0;fontSize=11;strokeColor=#A8201A;startArrow=none;" edge="1" parent="c039ahC2h3WBDTneyoFS-1" source="c039ahC2h3WBDTneyoFS-17">
          <mxGeometry relative="1" as="geometry">
            <mxPoint x="-394.8" y="189.9999999999999" as="targetPoint" />
            <Array as="points">
              <mxPoint x="-229.8" y="190" />
            </Array>
          </mxGeometry>
        </mxCell>
        <mxCell id="c039ahC2h3WBDTneyoFS-10" style="edgeStyle=orthogonalEdgeStyle;rounded=1;orthogonalLoop=1;jettySize=auto;html=1;exitX=1;exitY=0.5;exitDx=0;exitDy=0;entryX=0.5;entryY=1;entryDx=0;entryDy=0;fontSize=11;strokeColor=#A8201A;" edge="1" parent="c039ahC2h3WBDTneyoFS-1" source="c039ahC2h3WBDTneyoFS-12" target="c039ahC2h3WBDTneyoFS-17">
          <mxGeometry relative="1" as="geometry" />
        </mxCell>
        <mxCell id="c039ahC2h3WBDTneyoFS-11" value="No" style="edgeLabel;html=1;align=center;verticalAlign=middle;resizable=0;points=[];fontSize=11;" vertex="1" connectable="0" parent="c039ahC2h3WBDTneyoFS-10">
          <mxGeometry x="-0.9005" y="-2" relative="1" as="geometry">
            <mxPoint as="offset" />
          </mxGeometry>
        </mxCell>
        <mxCell id="c039ahC2h3WBDTneyoFS-12" value="Lora Initialized ?" style="rhombus;whiteSpace=wrap;html=1;rounded=0;sketch=0;fontColor=#143642;strokeColor=#0F8B8D;fillColor=#FAE5C7;" vertex="1" parent="c039ahC2h3WBDTneyoFS-1">
          <mxGeometry x="-454.09999999999997" y="270" width="98" height="90" as="geometry" />
        </mxCell>
        <mxCell id="c039ahC2h3WBDTneyoFS-13" style="edgeStyle=orthogonalEdgeStyle;rounded=1;orthogonalLoop=1;jettySize=auto;html=1;exitX=0.5;exitY=1;exitDx=0;exitDy=0;entryX=0.5;entryY=0;entryDx=0;entryDy=0;fontSize=11;strokeColor=#A8201A;startArrow=none;" edge="1" parent="c039ahC2h3WBDTneyoFS-1" source="c039ahC2h3WBDTneyoFS-16" target="c039ahC2h3WBDTneyoFS-6">
          <mxGeometry relative="1" as="geometry" />
        </mxCell>
        <mxCell id="c039ahC2h3WBDTneyoFS-14" style="edgeStyle=orthogonalEdgeStyle;rounded=1;orthogonalLoop=1;jettySize=auto;html=1;exitX=0.5;exitY=1;exitDx=0;exitDy=0;entryX=0.5;entryY=0;entryDx=0;entryDy=0;fontSize=11;strokeColor=#A8201A;" edge="1" parent="c039ahC2h3WBDTneyoFS-1" source="c039ahC2h3WBDTneyoFS-15" target="c039ahC2h3WBDTneyoFS-16">
          <mxGeometry relative="1" as="geometry" />
        </mxCell>
        <mxCell id="c039ahC2h3WBDTneyoFS-15" value="LoraSetPins" style="shape=process;whiteSpace=wrap;html=1;backgroundOutline=1;rounded=0;sketch=0;fontColor=#143642;strokeColor=#0F8B8D;fillColor=#FAE5C7;fontStyle=1" vertex="1" parent="c039ahC2h3WBDTneyoFS-1">
          <mxGeometry x="-479.84999999999997" y="140" width="150" height="30" as="geometry" />
        </mxCell>
        <mxCell id="c039ahC2h3WBDTneyoFS-16" value="" style="ellipse;whiteSpace=wrap;html=1;aspect=fixed;rounded=0;sketch=0;fontColor=#143642;strokeColor=#0F8B8D;fillColor=#FAE5C7;" vertex="1" parent="c039ahC2h3WBDTneyoFS-1">
          <mxGeometry x="-414.6" y="183" width="20" height="20" as="geometry" />
        </mxCell>
        <mxCell id="c039ahC2h3WBDTneyoFS-17" value="&lt;b&gt;Log&lt;/b&gt; connection error" style="rounded=0;whiteSpace=wrap;html=1;sketch=0;fontColor=#143642;strokeColor=#0F8B8D;fillColor=#FAE5C7;" vertex="1" parent="c039ahC2h3WBDTneyoFS-1">
          <mxGeometry x="-289.8" y="240" width="120.05" height="30" as="geometry" />
        </mxCell>
        <mxCell id="vRmglNNV83ifhox25MPV-0" style="edgeStyle=orthogonalEdgeStyle;curved=0;rounded=1;sketch=0;orthogonalLoop=1;jettySize=auto;html=1;exitX=0.5;exitY=1;exitDx=0;exitDy=0;entryX=0.5;entryY=0;entryDx=0;entryDy=0;fontColor=#143642;strokeColor=#A8201A;fillColor=#FAE5C7;" edge="1" parent="c039ahC2h3WBDTneyoFS-1" source="vRmglNNV83ifhox25MPV-1">
          <mxGeometry relative="1" as="geometry">
            <mxPoint x="-614.75" y="140" as="targetPoint" />
          </mxGeometry>
        </mxCell>
        <mxCell id="vRmglNNV83ifhox25MPV-1" value="Start-Up" style="ellipse;whiteSpace=wrap;html=1;fillColor=#FAE5C7;strokeColor=#0F8B8D;fontColor=#143642;fontStyle=1" vertex="1" parent="c039ahC2h3WBDTneyoFS-1">
          <mxGeometry x="-677.75" y="50" width="125.5" height="50" as="geometry" />
        </mxCell>
        <mxCell id="vRmglNNV83ifhox25MPV-2" value="" style="edgeStyle=orthogonalEdgeStyle;rounded=1;sketch=0;orthogonalLoop=1;jettySize=auto;html=1;fontColor=#143642;strokeColor=#A8201A;fillColor=#FAE5C7;entryX=0.5;entryY=0;entryDx=0;entryDy=0;" edge="1" parent="c039ahC2h3WBDTneyoFS-1" source="vRmglNNV83ifhox25MPV-3">
          <mxGeometry relative="1" as="geometry">
            <mxPoint x="-614.875" y="360" as="targetPoint" />
          </mxGeometry>
        </mxCell>
        <mxCell id="vRmglNNV83ifhox25MPV-3" value="&lt;div&gt;&lt;b&gt;Create &lt;/b&gt;&lt;i&gt;tLoraSend&lt;/i&gt;&lt;/div&gt;&lt;div&gt;&lt;b&gt;Create &lt;/b&gt;&lt;i&gt;tLoraRecv&lt;/i&gt;&lt;/div&gt;&lt;div&gt;&lt;b&gt;Create&lt;/b&gt; &lt;i&gt;tTCPSend&lt;/i&gt;&lt;/div&gt;&lt;div&gt;&lt;div&gt;&lt;b&gt;Create&lt;/b&gt; &lt;i&gt;tTCPRecv&lt;/i&gt;&lt;/div&gt;&lt;i&gt;&lt;/i&gt;&lt;/div&gt;" style="rounded=0;whiteSpace=wrap;html=1;sketch=0;fontColor=#143642;strokeColor=#0F8B8D;fillColor=#FAE5C7;" vertex="1" parent="c039ahC2h3WBDTneyoFS-1">
          <mxGeometry x="-689.75" y="270" width="150" height="70" as="geometry" />
        </mxCell>
        <mxCell id="ow29j2xqtTPBDxcSRLei-0" style="edgeStyle=orthogonalEdgeStyle;rounded=1;orthogonalLoop=1;jettySize=auto;html=1;exitX=0.5;exitY=1;exitDx=0;exitDy=0;entryX=0.5;entryY=0;entryDx=0;entryDy=0;strokeColor=#A8201A;" edge="1" parent="c039ahC2h3WBDTneyoFS-1" source="vRmglNNV83ifhox25MPV-7" target="vRmglNNV83ifhox25MPV-9">
          <mxGeometry relative="1" as="geometry" />
        </mxCell>
        <mxCell id="vRmglNNV83ifhox25MPV-7" value="InitLora " style="shape=process;whiteSpace=wrap;html=1;backgroundOutline=1;rounded=0;sketch=0;fontColor=#143642;strokeColor=#0F8B8D;fillColor=#FAE5C7;fontStyle=1" vertex="1" parent="c039ahC2h3WBDTneyoFS-1">
          <mxGeometry x="-689.75" y="140" width="150" height="30" as="geometry" />
        </mxCell>
        <mxCell id="vRmglNNV83ifhox25MPV-8" value="end" style="ellipse;whiteSpace=wrap;html=1;fillColor=#FAE5C7;strokeColor=#0F8B8D;fontColor=#143642;fontStyle=1" vertex="1" parent="c039ahC2h3WBDTneyoFS-1">
          <mxGeometry x="-638.5" y="360" width="48" height="30" as="geometry" />
        </mxCell>
        <mxCell id="vRmglNNV83ifhox25MPV-9" value="InitPWM " style="shape=process;whiteSpace=wrap;html=1;backgroundOutline=1;rounded=0;sketch=0;fontColor=#143642;strokeColor=#0F8B8D;fillColor=#FAE5C7;fontStyle=1" vertex="1" parent="c039ahC2h3WBDTneyoFS-1">
          <mxGeometry x="-690" y="190" width="150" height="30" as="geometry" />
        </mxCell>
      </root>
    </mxGraphModel>
  </diagram>
  <diagram name="ClassLamp" id="AHEPvDV3QrqCLe3YrJ9B">
    <mxGraphModel dx="1350" dy="764" grid="1" gridSize="10" guides="1" tooltips="1" connect="1" arrows="1" fold="1" page="1" pageScale="1" pageWidth="850" pageHeight="1100" background="none" math="0" shadow="0">
      <root>
        <mxCell id="alBC6dTl3LGucG_TEPA8-0" />
        <mxCell id="alBC6dTl3LGucG_TEPA8-1" parent="alBC6dTl3LGucG_TEPA8-0" />
        <mxCell id="alBC6dTl3LGucG_TEPA8-2" value="Lamp" style="swimlane;fontStyle=1;align=center;verticalAlign=top;childLayout=stackLayout;horizontal=1;startSize=26;horizontalStack=0;resizeParent=1;resizeParentMax=0;resizeLast=0;collapsible=1;marginBottom=0;fillColor=#FAE5C7;strokeColor=#0F8B8D;fontColor=#143642;" parent="alBC6dTl3LGucG_TEPA8-1" vertex="1">
          <mxGeometry x="240" y="280" width="200" height="130" as="geometry">
            <mxRectangle x="240" y="280" width="60" height="26" as="alternateBounds" />
          </mxGeometry>
        </mxCell>
        <mxCell id="alBC6dTl3LGucG_TEPA8-3" value="- mutChangePWM : mutex&#xa;&#xa;" style="text;strokeColor=none;fillColor=none;align=left;verticalAlign=top;spacingLeft=4;spacingRight=4;overflow=hidden;rotatable=0;points=[[0,0.5],[1,0.5]];portConstraint=eastwest;fontColor=#143642;" parent="alBC6dTl3LGucG_TEPA8-2" vertex="1">
          <mxGeometry y="26" width="200" height="34" as="geometry" />
        </mxCell>
        <mxCell id="alBC6dTl3LGucG_TEPA8-4" value="" style="line;strokeWidth=1;fillColor=none;align=left;verticalAlign=middle;spacingTop=-1;spacingLeft=3;spacingRight=3;rotatable=0;labelPosition=right;points=[];portConstraint=eastwest;labelBackgroundColor=#DAD2D8;strokeColor=#0F8B8D;fontColor=#143642;" parent="alBC6dTl3LGucG_TEPA8-2" vertex="1">
          <mxGeometry y="60" width="200" height="8" as="geometry" />
        </mxCell>
        <mxCell id="alBC6dTl3LGucG_TEPA8-5" value="+ Lamp(void)&#xa;+ ~Lamp(void)&#xa;+ setBrightness(in lux: int) void&#xa;&#xa;" style="text;strokeColor=none;fillColor=none;align=left;verticalAlign=top;spacingLeft=4;spacingRight=4;overflow=hidden;rotatable=0;points=[[0,0.5],[1,0.5]];portConstraint=eastwest;fontColor=#143642;" parent="alBC6dTl3LGucG_TEPA8-2" vertex="1">
          <mxGeometry y="68" width="200" height="62" as="geometry" />
        </mxCell>
      </root>
    </mxGraphModel>
  </diagram>
  <diagram name="Lamp" id="nafklJuiGWk2rj9woEp0">
    <mxGraphModel dx="2200" dy="764" grid="1" gridSize="10" guides="1" tooltips="1" connect="1" arrows="1" fold="1" page="1" pageScale="1" pageWidth="850" pageHeight="1100" background="none" math="0" shadow="0">
      <root>
        <mxCell id="zJ8uY0_C8p3GI5NPvT_y-0" />
        <mxCell id="zJ8uY0_C8p3GI5NPvT_y-1" parent="zJ8uY0_C8p3GI5NPvT_y-0" />
        <mxCell id="zJ8uY0_C8p3GI5NPvT_y-2" style="edgeStyle=orthogonalEdgeStyle;curved=0;rounded=1;sketch=0;orthogonalLoop=1;jettySize=auto;html=1;exitX=0.5;exitY=1;exitDx=0;exitDy=0;entryX=0.5;entryY=0;entryDx=0;entryDy=0;fontColor=#143642;strokeColor=#A8201A;fillColor=#FAE5C7;" parent="zJ8uY0_C8p3GI5NPvT_y-1" source="zJ8uY0_C8p3GI5NPvT_y-3" edge="1">
          <mxGeometry relative="1" as="geometry">
            <mxPoint x="-425" y="160" as="targetPoint" />
          </mxGeometry>
        </mxCell>
        <mxCell id="zJ8uY0_C8p3GI5NPvT_y-3" value="Lamp" style="ellipse;whiteSpace=wrap;html=1;fillColor=#FAE5C7;strokeColor=#0F8B8D;fontColor=#143642;fontStyle=1" parent="zJ8uY0_C8p3GI5NPvT_y-1" vertex="1">
          <mxGeometry x="-488.25" y="80" width="125.5" height="50" as="geometry" />
        </mxCell>
        <mxCell id="zJ8uY0_C8p3GI5NPvT_y-4" style="edgeStyle=orthogonalEdgeStyle;curved=0;rounded=1;sketch=0;orthogonalLoop=1;jettySize=auto;html=1;exitX=0.5;exitY=1;exitDx=0;exitDy=0;entryX=0.5;entryY=0;entryDx=0;entryDy=0;fontColor=#143642;strokeColor=#A8201A;fillColor=#FAE5C7;" parent="zJ8uY0_C8p3GI5NPvT_y-1" source="zJ8uY0_C8p3GI5NPvT_y-5" edge="1">
          <mxGeometry relative="1" as="geometry">
            <mxPoint x="-424.875" y="290" as="targetPoint" />
          </mxGeometry>
        </mxCell>
        <mxCell id="zJ8uY0_C8p3GI5NPvT_y-5" value="&lt;div&gt;&lt;b&gt;Init&lt;/b&gt; &lt;i&gt;mutChangePWM&lt;/i&gt;&lt;/div&gt;" style="rounded=0;whiteSpace=wrap;html=1;sketch=0;fontColor=#143642;strokeColor=#0F8B8D;fillColor=#FAE5C7;" parent="zJ8uY0_C8p3GI5NPvT_y-1" vertex="1">
          <mxGeometry x="-500" y="220" width="150.25" height="40" as="geometry" />
        </mxCell>
        <mxCell id="zJ8uY0_C8p3GI5NPvT_y-6" style="edgeStyle=orthogonalEdgeStyle;curved=0;rounded=1;sketch=0;orthogonalLoop=1;jettySize=auto;html=1;exitX=0.5;exitY=1;exitDx=0;exitDy=0;entryX=0.5;entryY=0;entryDx=0;entryDy=0;fontColor=#143642;strokeColor=#A8201A;fillColor=#FAE5C7;" parent="zJ8uY0_C8p3GI5NPvT_y-1" source="zJ8uY0_C8p3GI5NPvT_y-7" target="zJ8uY0_C8p3GI5NPvT_y-5" edge="1">
          <mxGeometry relative="1" as="geometry" />
        </mxCell>
        <mxCell id="zJ8uY0_C8p3GI5NPvT_y-7" value="&lt;b&gt;initPWM()&lt;/b&gt;" style="shape=process;whiteSpace=wrap;html=1;backgroundOutline=1;rounded=0;sketch=0;fontColor=#143642;strokeColor=#0F8B8D;fillColor=#FAE5C7;" parent="zJ8uY0_C8p3GI5NPvT_y-1" vertex="1">
          <mxGeometry x="-500.62" y="160" width="150" height="40" as="geometry" />
        </mxCell>
        <mxCell id="zJ8uY0_C8p3GI5NPvT_y-8" value="End" style="ellipse;whiteSpace=wrap;html=1;fillColor=#FAE5C7;strokeColor=#0F8B8D;fontColor=#143642;fontStyle=1" parent="zJ8uY0_C8p3GI5NPvT_y-1" vertex="1">
          <mxGeometry x="-454.74" y="290" width="58.25" height="40" as="geometry" />
        </mxCell>
        <mxCell id="zJ8uY0_C8p3GI5NPvT_y-11" style="edgeStyle=orthogonalEdgeStyle;curved=0;rounded=1;sketch=0;orthogonalLoop=1;jettySize=auto;html=1;exitX=0.5;exitY=1;exitDx=0;exitDy=0;entryX=0.5;entryY=0;entryDx=0;entryDy=0;fontColor=#143642;strokeColor=#A8201A;fillColor=#FAE5C7;" parent="zJ8uY0_C8p3GI5NPvT_y-1" source="zJ8uY0_C8p3GI5NPvT_y-12" edge="1">
          <mxGeometry relative="1" as="geometry">
            <mxPoint x="-224.38" y="160" as="targetPoint" />
          </mxGeometry>
        </mxCell>
        <mxCell id="zJ8uY0_C8p3GI5NPvT_y-12" value="~Lamp" style="ellipse;whiteSpace=wrap;html=1;fillColor=#FAE5C7;strokeColor=#0F8B8D;fontColor=#143642;fontStyle=1" parent="zJ8uY0_C8p3GI5NPvT_y-1" vertex="1">
          <mxGeometry x="-287.63" y="80" width="125.5" height="50" as="geometry" />
        </mxCell>
        <mxCell id="YWAvp_dMM53UsYq6vozx-0" style="edgeStyle=orthogonalEdgeStyle;curved=0;rounded=1;sketch=0;orthogonalLoop=1;jettySize=auto;html=1;exitX=0.5;exitY=1;exitDx=0;exitDy=0;entryX=0.5;entryY=0;entryDx=0;entryDy=0;fontSize=11;fontColor=#143642;strokeColor=#A8201A;fillColor=#FAE5C7;" parent="zJ8uY0_C8p3GI5NPvT_y-1" source="zJ8uY0_C8p3GI5NPvT_y-16" target="zJ8uY0_C8p3GI5NPvT_y-17" edge="1">
          <mxGeometry relative="1" as="geometry" />
        </mxCell>
        <mxCell id="zJ8uY0_C8p3GI5NPvT_y-16" value="&lt;b&gt;killPWM()&lt;/b&gt;" style="shape=process;whiteSpace=wrap;html=1;backgroundOutline=1;rounded=0;sketch=0;fontColor=#143642;strokeColor=#0F8B8D;fillColor=#FAE5C7;" parent="zJ8uY0_C8p3GI5NPvT_y-1" vertex="1">
          <mxGeometry x="-300" y="160" width="150" height="40" as="geometry" />
        </mxCell>
        <mxCell id="zJ8uY0_C8p3GI5NPvT_y-17" value="End" style="ellipse;whiteSpace=wrap;html=1;fillColor=#FAE5C7;strokeColor=#0F8B8D;fontColor=#143642;fontStyle=1" parent="zJ8uY0_C8p3GI5NPvT_y-1" vertex="1">
          <mxGeometry x="-254.12" y="230" width="58.25" height="40" as="geometry" />
        </mxCell>
      </root>
    </mxGraphModel>
  </diagram>
  <diagram name="setBrightness" id="plAnggCOEXaSvufq5hH9">
    <mxGraphModel dx="2200" dy="764" grid="1" gridSize="10" guides="1" tooltips="1" connect="1" arrows="1" fold="1" page="1" pageScale="1" pageWidth="850" pageHeight="1100" background="none" math="0" shadow="0">
      <root>
        <mxCell id="lpvbm692b52YVjY_Ah5F-0" />
        <mxCell id="lpvbm692b52YVjY_Ah5F-1" parent="lpvbm692b52YVjY_Ah5F-0" />
        <mxCell id="lpvbm692b52YVjY_Ah5F-2" style="edgeStyle=orthogonalEdgeStyle;curved=0;rounded=1;sketch=0;orthogonalLoop=1;jettySize=auto;html=1;exitX=0.5;exitY=1;exitDx=0;exitDy=0;entryX=0.5;entryY=0;entryDx=0;entryDy=0;fontColor=#143642;strokeColor=#A8201A;fillColor=#FAE5C7;" parent="lpvbm692b52YVjY_Ah5F-1" source="lpvbm692b52YVjY_Ah5F-3" target="lpvbm692b52YVjY_Ah5F-5" edge="1">
          <mxGeometry relative="1" as="geometry" />
        </mxCell>
        <mxCell id="lpvbm692b52YVjY_Ah5F-3" value="&lt;div&gt;setBrightness&lt;/div&gt;&lt;div&gt;&lt;br&gt;&lt;/div&gt;&lt;div&gt;IN: &lt;span style=&quot;font-weight: normal&quot;&gt;&lt;i&gt;lux&lt;/i&gt;&lt;/span&gt;&lt;br&gt;&lt;/div&gt;" style="ellipse;whiteSpace=wrap;html=1;fillColor=#FAE5C7;strokeColor=#0F8B8D;fontColor=#143642;fontStyle=1" parent="lpvbm692b52YVjY_Ah5F-1" vertex="1">
          <mxGeometry x="-488.25" y="100" width="125.5" height="60" as="geometry" />
        </mxCell>
        <mxCell id="lpvbm692b52YVjY_Ah5F-4" value="" style="edgeStyle=orthogonalEdgeStyle;curved=0;rounded=1;sketch=0;orthogonalLoop=1;jettySize=auto;html=1;fontColor=#143642;strokeColor=#A8201A;fillColor=#FAE5C7;" parent="lpvbm692b52YVjY_Ah5F-1" source="lpvbm692b52YVjY_Ah5F-5" edge="1">
          <mxGeometry relative="1" as="geometry">
            <mxPoint x="-425.1714285714286" y="260" as="targetPoint" />
          </mxGeometry>
        </mxCell>
        <mxCell id="lpvbm692b52YVjY_Ah5F-5" value="&lt;b&gt;Lock&lt;/b&gt; &lt;i&gt;mutChangePWM&lt;/i&gt;" style="rounded=0;whiteSpace=wrap;html=1;sketch=0;fontColor=#143642;strokeColor=#0F8B8D;fillColor=#FAE5C7;" parent="lpvbm692b52YVjY_Ah5F-1" vertex="1">
          <mxGeometry x="-500.25" y="200" width="150.25" height="40" as="geometry" />
        </mxCell>
        <mxCell id="LrJbiJjTsHfEA14OmxV8-5" style="edgeStyle=orthogonalEdgeStyle;curved=0;rounded=1;sketch=0;orthogonalLoop=1;jettySize=auto;html=1;exitX=0.5;exitY=1;exitDx=0;exitDy=0;entryX=0.5;entryY=0;entryDx=0;entryDy=0;fontSize=11;fontColor=#143642;strokeColor=#A8201A;fillColor=#FAE5C7;" parent="lpvbm692b52YVjY_Ah5F-1" source="lpvbm692b52YVjY_Ah5F-9" target="LrJbiJjTsHfEA14OmxV8-3" edge="1">
          <mxGeometry relative="1" as="geometry" />
        </mxCell>
        <mxCell id="lpvbm692b52YVjY_Ah5F-9" value="&lt;b&gt;Unlock&lt;/b&gt; &lt;i&gt;mutChangePWM&lt;/i&gt;" style="rounded=0;whiteSpace=wrap;html=1;sketch=0;fontColor=#143642;strokeColor=#0F8B8D;fillColor=#FAE5C7;" parent="lpvbm692b52YVjY_Ah5F-1" vertex="1">
          <mxGeometry x="-500.5" y="320" width="150" height="40" as="geometry" />
        </mxCell>
        <mxCell id="lpvbm692b52YVjY_Ah5F-10" style="edgeStyle=orthogonalEdgeStyle;curved=0;rounded=1;sketch=0;orthogonalLoop=1;jettySize=auto;html=1;exitX=0.5;exitY=1;exitDx=0;exitDy=0;entryX=0.5;entryY=0;entryDx=0;entryDy=0;fontColor=#143642;strokeColor=#A8201A;fillColor=#FAE5C7;" parent="lpvbm692b52YVjY_Ah5F-1" edge="1">
          <mxGeometry relative="1" as="geometry">
            <mxPoint x="-425.25" y="300" as="sourcePoint" />
            <mxPoint x="-425.5" y="320" as="targetPoint" />
          </mxGeometry>
        </mxCell>
        <mxCell id="lpvbm692b52YVjY_Ah5F-12" value="End" style="ellipse;whiteSpace=wrap;html=1;fillColor=#FAE5C7;strokeColor=#0F8B8D;fontColor=#143642;fontStyle=1" parent="lpvbm692b52YVjY_Ah5F-1" vertex="1">
          <mxGeometry x="-454.62" y="580" width="58.25" height="40" as="geometry" />
        </mxCell>
        <mxCell id="SeTu-uYsrpvs1nUyaTsv-0" value="&lt;b&gt;setPWM&lt;/b&gt;(&lt;i&gt;lux&lt;/i&gt;)" style="shape=process;whiteSpace=wrap;html=1;backgroundOutline=1;rounded=0;sketch=0;fontColor=#143642;strokeColor=#0F8B8D;fillColor=#FAE5C7;" parent="lpvbm692b52YVjY_Ah5F-1" vertex="1">
          <mxGeometry x="-500" y="260" width="150" height="40" as="geometry" />
        </mxCell>
        <mxCell id="LrJbiJjTsHfEA14OmxV8-1" style="edgeStyle=orthogonalEdgeStyle;rounded=1;sketch=0;orthogonalLoop=1;jettySize=auto;html=1;exitX=0;exitY=0.5;exitDx=0;exitDy=0;fontColor=#143642;strokeColor=#A8201A;fillColor=#FAE5C7;" parent="lpvbm692b52YVjY_Ah5F-1" source="LrJbiJjTsHfEA14OmxV8-3" target="LrJbiJjTsHfEA14OmxV8-4" edge="1">
          <mxGeometry relative="1" as="geometry">
            <mxPoint x="-530" y="540" as="targetPoint" />
          </mxGeometry>
        </mxCell>
        <mxCell id="LrJbiJjTsHfEA14OmxV8-2" value="Yes" style="edgeLabel;html=1;align=center;verticalAlign=middle;resizable=0;points=[];fontColor=#143642;" parent="LrJbiJjTsHfEA14OmxV8-1" vertex="1" connectable="0">
          <mxGeometry x="-0.6344" y="-1" relative="1" as="geometry">
            <mxPoint as="offset" />
          </mxGeometry>
        </mxCell>
        <mxCell id="LrJbiJjTsHfEA14OmxV8-7" style="edgeStyle=orthogonalEdgeStyle;curved=0;rounded=1;sketch=0;orthogonalLoop=1;jettySize=auto;html=1;exitX=1;exitY=0.5;exitDx=0;exitDy=0;fontSize=11;fontColor=#143642;strokeColor=#A8201A;fillColor=#FAE5C7;entryX=1;entryY=0.5;entryDx=0;entryDy=0;" parent="lpvbm692b52YVjY_Ah5F-1" source="LrJbiJjTsHfEA14OmxV8-3" target="tznhnhZadJprUmO_-TS3-0" edge="1">
          <mxGeometry relative="1" as="geometry">
            <Array as="points">
              <mxPoint x="-320" y="420" />
              <mxPoint x="-320" y="540" />
            </Array>
          </mxGeometry>
        </mxCell>
        <mxCell id="tznhnhZadJprUmO_-TS3-3" value="No" style="edgeLabel;html=1;align=center;verticalAlign=middle;resizable=0;points=[];fontSize=11;fontColor=#143642;" parent="LrJbiJjTsHfEA14OmxV8-7" vertex="1" connectable="0">
          <mxGeometry x="-0.8969" y="2" relative="1" as="geometry">
            <mxPoint as="offset" />
          </mxGeometry>
        </mxCell>
        <mxCell id="LrJbiJjTsHfEA14OmxV8-3" value="&lt;div&gt;PWM is&lt;/div&gt;&lt;div&gt;maximum ?&lt;br&gt;&lt;/div&gt;" style="rhombus;whiteSpace=wrap;html=1;rounded=0;sketch=0;fontColor=#143642;strokeColor=#0F8B8D;fillColor=#FAE5C7;" parent="lpvbm692b52YVjY_Ah5F-1" vertex="1">
          <mxGeometry x="-468.25" y="380" width="85.5" height="80" as="geometry" />
        </mxCell>
        <mxCell id="LrJbiJjTsHfEA14OmxV8-6" style="edgeStyle=orthogonalEdgeStyle;curved=0;rounded=1;sketch=0;orthogonalLoop=1;jettySize=auto;html=1;exitX=0.5;exitY=1;exitDx=0;exitDy=0;entryX=0;entryY=0.5;entryDx=0;entryDy=0;fontSize=11;fontColor=#143642;strokeColor=#A8201A;fillColor=#FAE5C7;" parent="lpvbm692b52YVjY_Ah5F-1" source="LrJbiJjTsHfEA14OmxV8-4" target="tznhnhZadJprUmO_-TS3-0" edge="1">
          <mxGeometry relative="1" as="geometry" />
        </mxCell>
        <mxCell id="LrJbiJjTsHfEA14OmxV8-4" value="&lt;div&gt;&lt;b&gt;setTimer&lt;/b&gt;&lt;/div&gt;&lt;div&gt;(&lt;i&gt;LAMP_ON_TIMEOUT&lt;/i&gt;)&lt;/div&gt;" style="shape=process;whiteSpace=wrap;html=1;backgroundOutline=1;rounded=0;sketch=0;fontColor=#143642;strokeColor=#0F8B8D;fillColor=#FAE5C7;" parent="lpvbm692b52YVjY_Ah5F-1" vertex="1">
          <mxGeometry x="-620" y="460" width="170" height="40" as="geometry" />
        </mxCell>
        <mxCell id="tznhnhZadJprUmO_-TS3-2" style="edgeStyle=orthogonalEdgeStyle;curved=0;rounded=1;sketch=0;orthogonalLoop=1;jettySize=auto;html=1;exitX=0.5;exitY=1;exitDx=0;exitDy=0;entryX=0.5;entryY=0;entryDx=0;entryDy=0;fontSize=11;fontColor=#143642;strokeColor=#A8201A;fillColor=#FAE5C7;" parent="lpvbm692b52YVjY_Ah5F-1" source="tznhnhZadJprUmO_-TS3-0" target="lpvbm692b52YVjY_Ah5F-12" edge="1">
          <mxGeometry relative="1" as="geometry" />
        </mxCell>
        <mxCell id="tznhnhZadJprUmO_-TS3-0" value="" style="ellipse;whiteSpace=wrap;html=1;aspect=fixed;rounded=0;sketch=0;fontColor=#143642;strokeColor=#0F8B8D;fillColor=#FAE5C7;" parent="lpvbm692b52YVjY_Ah5F-1" vertex="1">
          <mxGeometry x="-435" y="530" width="20" height="20" as="geometry" />
        </mxCell>
      </root>
    </mxGraphModel>
  </diagram>
  <diagram name="ClassComms" id="6ZzvCimTx932w6f_d4yo">
    <mxGraphModel dx="1350" dy="764" grid="1" gridSize="10" guides="1" tooltips="1" connect="1" arrows="1" fold="1" page="1" pageScale="1" pageWidth="850" pageHeight="1100" background="none" math="0" shadow="0">
      <root>
        <mxCell id="NHT2Cax_Y-9c0e0i6y4c-0" />
        <mxCell id="NHT2Cax_Y-9c0e0i6y4c-1" parent="NHT2Cax_Y-9c0e0i6y4c-0" />
        <mxCell id="NHT2Cax_Y-9c0e0i6y4c-2" value="Communication" style="swimlane;fontStyle=1;align=center;verticalAlign=top;childLayout=stackLayout;horizontal=1;startSize=26;horizontalStack=0;resizeParent=1;resizeParentMax=0;resizeLast=0;collapsible=1;marginBottom=0;fillColor=#FAE5C7;strokeColor=#0F8B8D;fontColor=#143642;" parent="NHT2Cax_Y-9c0e0i6y4c-1" vertex="1">
          <mxGeometry x="240" y="280" width="200" height="220" as="geometry" />
        </mxCell>
        <mxCell id="NHT2Cax_Y-9c0e0i6y4c-3" value="- mutComms : mutex&#xa;- mutSend : mutex&#xa;- condSend: cond_variable &#xa;- queued_msgs : vector&lt;string&gt;&#xa;&#xa;&#xa;" style="text;strokeColor=none;fillColor=none;align=left;verticalAlign=top;spacingLeft=4;spacingRight=4;overflow=hidden;rotatable=0;points=[[0,0.5],[1,0.5]];portConstraint=eastwest;fontColor=#143642;" parent="NHT2Cax_Y-9c0e0i6y4c-2" vertex="1">
          <mxGeometry y="26" width="200" height="74" as="geometry" />
        </mxCell>
        <mxCell id="NHT2Cax_Y-9c0e0i6y4c-4" value="" style="line;strokeWidth=1;fillColor=none;align=left;verticalAlign=middle;spacingTop=-1;spacingLeft=3;spacingRight=3;rotatable=0;labelPosition=right;points=[];portConstraint=eastwest;labelBackgroundColor=#DAD2D8;strokeColor=#0F8B8D;fontColor=#143642;" parent="NHT2Cax_Y-9c0e0i6y4c-2" vertex="1">
          <mxGeometry y="100" width="200" height="8" as="geometry" />
        </mxCell>
        <mxCell id="NHT2Cax_Y-9c0e0i6y4c-5" value="+ Communication(void)&#xa;+ ~Communication(void)&#xa;+ Send(IN msg : string) void&#xa;&#xa;- tLoraSend(void*) void&#xa;- tLoraRecv(void*) void&#xa;&#xa;" style="text;strokeColor=none;fillColor=none;align=left;verticalAlign=top;spacingLeft=4;spacingRight=4;overflow=hidden;rotatable=0;points=[[0,0.5],[1,0.5]];portConstraint=eastwest;fontColor=#143642;" parent="NHT2Cax_Y-9c0e0i6y4c-2" vertex="1">
          <mxGeometry y="108" width="200" height="112" as="geometry" />
        </mxCell>
      </root>
    </mxGraphModel>
  </diagram>
  <diagram name="Comms" id="Fd9k9mj5C9LPZED0Ant2">
    <mxGraphModel dx="2200" dy="764" grid="1" gridSize="10" guides="1" tooltips="1" connect="1" arrows="1" fold="1" page="1" pageScale="1" pageWidth="850" pageHeight="1100" background="none" math="0" shadow="0">
      <root>
        <mxCell id="uy-wKexsq8RQdHFMAPPw-0" />
        <mxCell id="uy-wKexsq8RQdHFMAPPw-1" parent="uy-wKexsq8RQdHFMAPPw-0" />
        <mxCell id="uy-wKexsq8RQdHFMAPPw-2" style="edgeStyle=orthogonalEdgeStyle;curved=0;rounded=1;sketch=0;orthogonalLoop=1;jettySize=auto;html=1;exitX=0.5;exitY=1;exitDx=0;exitDy=0;entryX=0.5;entryY=0;entryDx=0;entryDy=0;fontColor=#143642;strokeColor=#A8201A;fillColor=#FAE5C7;" parent="uy-wKexsq8RQdHFMAPPw-1" source="uy-wKexsq8RQdHFMAPPw-3" edge="1">
          <mxGeometry relative="1" as="geometry">
            <mxPoint x="-425" y="160" as="targetPoint" />
          </mxGeometry>
        </mxCell>
        <mxCell id="uy-wKexsq8RQdHFMAPPw-3" value="Communication" style="ellipse;whiteSpace=wrap;html=1;fillColor=#FAE5C7;strokeColor=#0F8B8D;fontColor=#143642;fontStyle=1" parent="uy-wKexsq8RQdHFMAPPw-1" vertex="1">
          <mxGeometry x="-488.25" y="80" width="125.5" height="50" as="geometry" />
        </mxCell>
        <mxCell id="VDvj3LiYv_ZpImz14evX-0" style="edgeStyle=orthogonalEdgeStyle;curved=0;rounded=1;sketch=0;orthogonalLoop=1;jettySize=auto;html=1;exitX=0.5;exitY=1;exitDx=0;exitDy=0;entryX=0.5;entryY=0;entryDx=0;entryDy=0;fontSize=11;fontColor=#143642;strokeColor=#A8201A;fillColor=#FAE5C7;" parent="uy-wKexsq8RQdHFMAPPw-1" source="uy-wKexsq8RQdHFMAPPw-5" target="uy-wKexsq8RQdHFMAPPw-8" edge="1">
          <mxGeometry relative="1" as="geometry" />
        </mxCell>
        <mxCell id="uy-wKexsq8RQdHFMAPPw-5" value="&lt;div&gt;&lt;b&gt;Create&lt;/b&gt; &lt;i&gt;tLoraSend&lt;/i&gt;&lt;/div&gt;&lt;div&gt;&lt;b&gt;Create&lt;/b&gt; &lt;i&gt;tLoraRecv&lt;/i&gt;&lt;/div&gt;" style="rounded=0;whiteSpace=wrap;html=1;sketch=0;fontColor=#143642;strokeColor=#0F8B8D;fillColor=#FAE5C7;" parent="uy-wKexsq8RQdHFMAPPw-1" vertex="1">
          <mxGeometry x="-500" y="290" width="150.25" height="40" as="geometry" />
        </mxCell>
        <mxCell id="uy-wKexsq8RQdHFMAPPw-6" style="edgeStyle=orthogonalEdgeStyle;curved=0;rounded=1;sketch=0;orthogonalLoop=1;jettySize=auto;html=1;exitX=0.5;exitY=1;exitDx=0;exitDy=0;entryX=0.5;entryY=0;entryDx=0;entryDy=0;fontColor=#143642;strokeColor=#A8201A;fillColor=#FAE5C7;" parent="uy-wKexsq8RQdHFMAPPw-1" source="uy-wKexsq8RQdHFMAPPw-7" target="uy-wKexsq8RQdHFMAPPw-5" edge="1">
          <mxGeometry relative="1" as="geometry" />
        </mxCell>
        <mxCell id="uy-wKexsq8RQdHFMAPPw-7" value="&lt;b&gt;initLora(&lt;/b&gt;&lt;b&gt;)&lt;/b&gt;" style="shape=process;whiteSpace=wrap;html=1;backgroundOutline=1;rounded=0;sketch=0;fontColor=#143642;strokeColor=#0F8B8D;fillColor=#FAE5C7;" parent="uy-wKexsq8RQdHFMAPPw-1" vertex="1">
          <mxGeometry x="-500.62" y="160" width="150" height="40" as="geometry" />
        </mxCell>
        <mxCell id="uy-wKexsq8RQdHFMAPPw-8" value="End" style="ellipse;whiteSpace=wrap;html=1;fillColor=#FAE5C7;strokeColor=#0F8B8D;fontColor=#143642;fontStyle=1" parent="uy-wKexsq8RQdHFMAPPw-1" vertex="1">
          <mxGeometry x="-454" y="350" width="58.25" height="40" as="geometry" />
        </mxCell>
        <mxCell id="uy-wKexsq8RQdHFMAPPw-9" style="edgeStyle=orthogonalEdgeStyle;curved=0;rounded=1;sketch=0;orthogonalLoop=1;jettySize=auto;html=1;exitX=0.5;exitY=1;exitDx=0;exitDy=0;entryX=0.5;entryY=0;entryDx=0;entryDy=0;fontColor=#143642;strokeColor=#A8201A;fillColor=#FAE5C7;" parent="uy-wKexsq8RQdHFMAPPw-1" source="uy-wKexsq8RQdHFMAPPw-10" edge="1">
          <mxGeometry relative="1" as="geometry">
            <mxPoint x="-224.38" y="160" as="targetPoint" />
          </mxGeometry>
        </mxCell>
        <mxCell id="uy-wKexsq8RQdHFMAPPw-10" value="~Communication" style="ellipse;whiteSpace=wrap;html=1;fillColor=#FAE5C7;strokeColor=#0F8B8D;fontColor=#143642;fontStyle=1" parent="uy-wKexsq8RQdHFMAPPw-1" vertex="1">
          <mxGeometry x="-287.63" y="80" width="125.5" height="50" as="geometry" />
        </mxCell>
        <mxCell id="uy-wKexsq8RQdHFMAPPw-13" style="edgeStyle=orthogonalEdgeStyle;curved=0;rounded=1;sketch=0;orthogonalLoop=1;jettySize=auto;html=1;exitX=0.5;exitY=1;exitDx=0;exitDy=0;entryX=0.5;entryY=0;entryDx=0;entryDy=0;fontColor=#143642;strokeColor=#A8201A;fillColor=#FAE5C7;" parent="uy-wKexsq8RQdHFMAPPw-1" source="uy-wKexsq8RQdHFMAPPw-14" target="VDvj3LiYv_ZpImz14evX-4" edge="1">
          <mxGeometry relative="1" as="geometry">
            <mxPoint x="-224.25499999999988" y="220" as="targetPoint" />
          </mxGeometry>
        </mxCell>
        <mxCell id="uy-wKexsq8RQdHFMAPPw-14" value="&lt;b&gt;killLora()&lt;/b&gt;" style="shape=process;whiteSpace=wrap;html=1;backgroundOutline=1;rounded=0;sketch=0;fontColor=#143642;strokeColor=#0F8B8D;fillColor=#FAE5C7;" parent="uy-wKexsq8RQdHFMAPPw-1" vertex="1">
          <mxGeometry x="-300" y="160" width="150" height="40" as="geometry" />
        </mxCell>
        <mxCell id="tB0dPYgtDZe04dINKhLs-1" value="&lt;div&gt;&lt;b&gt;Clear&lt;/b&gt; &lt;i&gt;queued_msgs&lt;/i&gt;&lt;/div&gt;&lt;div&gt;&lt;b&gt;Init &lt;/b&gt;&lt;i&gt;mutComms&lt;/i&gt;&lt;/div&gt;&lt;div&gt;&lt;b&gt;Init &lt;/b&gt;&lt;i&gt;mutSend&lt;/i&gt;&lt;/div&gt;" style="rounded=0;whiteSpace=wrap;html=1;sketch=0;fontColor=#143642;strokeColor=#0F8B8D;fillColor=#FAE5C7;" parent="uy-wKexsq8RQdHFMAPPw-1" vertex="1">
          <mxGeometry x="-500" y="220" width="150.25" height="50" as="geometry" />
        </mxCell>
        <mxCell id="VDvj3LiYv_ZpImz14evX-1" style="edgeStyle=orthogonalEdgeStyle;curved=0;rounded=1;sketch=0;orthogonalLoop=1;jettySize=auto;html=1;exitX=0.5;exitY=1;exitDx=0;exitDy=0;entryX=0.5;entryY=0;entryDx=0;entryDy=0;fontSize=11;fontColor=#143642;strokeColor=#A8201A;fillColor=#FAE5C7;" parent="uy-wKexsq8RQdHFMAPPw-1" source="VDvj3LiYv_ZpImz14evX-2" target="VDvj3LiYv_ZpImz14evX-3" edge="1">
          <mxGeometry relative="1" as="geometry" />
        </mxCell>
        <mxCell id="VDvj3LiYv_ZpImz14evX-2" value="&lt;div&gt;&lt;b&gt;Exit&lt;/b&gt; &lt;i&gt;tLoraSend&lt;/i&gt;&lt;/div&gt;&lt;div&gt;&lt;b&gt;Exit&lt;/b&gt; &lt;i&gt;tLoraRecv&lt;/i&gt;&lt;/div&gt;" style="rounded=0;whiteSpace=wrap;html=1;sketch=0;fontColor=#143642;strokeColor=#0F8B8D;fillColor=#FAE5C7;" parent="uy-wKexsq8RQdHFMAPPw-1" vertex="1">
          <mxGeometry x="-300.25" y="290" width="150.25" height="40" as="geometry" />
        </mxCell>
        <mxCell id="VDvj3LiYv_ZpImz14evX-3" value="End" style="ellipse;whiteSpace=wrap;html=1;fillColor=#FAE5C7;strokeColor=#0F8B8D;fontColor=#143642;fontStyle=1" parent="uy-wKexsq8RQdHFMAPPw-1" vertex="1">
          <mxGeometry x="-254.25" y="350" width="58.25" height="40" as="geometry" />
        </mxCell>
        <mxCell id="jwnHt5bDwJ9a3x2kFZiY-3" style="edgeStyle=orthogonalEdgeStyle;curved=0;rounded=1;sketch=0;orthogonalLoop=1;jettySize=auto;html=1;exitX=0.5;exitY=1;exitDx=0;exitDy=0;entryX=0.5;entryY=0;entryDx=0;entryDy=0;fontSize=11;fontColor=#143642;strokeColor=#A8201A;fillColor=#FAE5C7;" parent="uy-wKexsq8RQdHFMAPPw-1" source="VDvj3LiYv_ZpImz14evX-4" target="VDvj3LiYv_ZpImz14evX-2" edge="1">
          <mxGeometry relative="1" as="geometry" />
        </mxCell>
        <mxCell id="VDvj3LiYv_ZpImz14evX-4" value="&lt;div&gt;&lt;b&gt;Clear&lt;/b&gt; &lt;i&gt;queued_msgs&lt;/i&gt;&lt;/div&gt;" style="rounded=0;whiteSpace=wrap;html=1;sketch=0;fontColor=#143642;strokeColor=#0F8B8D;fillColor=#FAE5C7;" parent="uy-wKexsq8RQdHFMAPPw-1" vertex="1">
          <mxGeometry x="-300" y="225" width="150.25" height="40" as="geometry" />
        </mxCell>
      </root>
    </mxGraphModel>
  </diagram>
  <diagram name="Send" id="xpO8lgDlAE0mr_UNNwff">
    <mxGraphModel dx="2200" dy="764" grid="1" gridSize="10" guides="1" tooltips="1" connect="1" arrows="1" fold="1" page="1" pageScale="1" pageWidth="850" pageHeight="1100" background="none" math="0" shadow="0">
      <root>
        <mxCell id="Pc65MUVskpiPOQCiwG1j-0" />
        <mxCell id="Pc65MUVskpiPOQCiwG1j-1" parent="Pc65MUVskpiPOQCiwG1j-0" />
        <mxCell id="Pc65MUVskpiPOQCiwG1j-2" style="edgeStyle=orthogonalEdgeStyle;curved=0;rounded=1;sketch=0;orthogonalLoop=1;jettySize=auto;html=1;exitX=0.5;exitY=1;exitDx=0;exitDy=0;entryX=0.5;entryY=0;entryDx=0;entryDy=0;fontColor=#143642;strokeColor=#A8201A;fillColor=#FAE5C7;" parent="Pc65MUVskpiPOQCiwG1j-1" source="Pc65MUVskpiPOQCiwG1j-3" edge="1">
          <mxGeometry relative="1" as="geometry">
            <mxPoint x="-425" y="160" as="targetPoint" />
          </mxGeometry>
        </mxCell>
        <mxCell id="Pc65MUVskpiPOQCiwG1j-3" value="&lt;div&gt;Send&lt;/div&gt;&lt;div&gt;&lt;br&gt;&lt;/div&gt;&lt;div&gt;IN: &lt;i&gt;&lt;span style=&quot;font-weight: normal&quot;&gt;msg&lt;/span&gt;&lt;/i&gt;&lt;br&gt;&lt;/div&gt;" style="ellipse;whiteSpace=wrap;html=1;fillColor=#FAE5C7;strokeColor=#0F8B8D;fontColor=#143642;fontStyle=1" parent="Pc65MUVskpiPOQCiwG1j-1" vertex="1">
          <mxGeometry x="-488" y="70" width="125.5" height="50" as="geometry" />
        </mxCell>
        <mxCell id="xzXZEJooZxsXrAsBJuVu-2" style="edgeStyle=orthogonalEdgeStyle;curved=0;rounded=1;sketch=0;orthogonalLoop=1;jettySize=auto;html=1;exitX=0.5;exitY=1;exitDx=0;exitDy=0;entryX=0.5;entryY=0;entryDx=0;entryDy=0;fontColor=#143642;strokeColor=#A8201A;fillColor=#FAE5C7;" parent="Pc65MUVskpiPOQCiwG1j-1" source="Pc65MUVskpiPOQCiwG1j-7" target="566tL3dW4CICdEZEd5tv-0" edge="1">
          <mxGeometry relative="1" as="geometry" />
        </mxCell>
        <mxCell id="Pc65MUVskpiPOQCiwG1j-7" value="&lt;b&gt;Lock&lt;/b&gt; &lt;i&gt;mutSend&lt;/i&gt;" style="rounded=0;whiteSpace=wrap;html=1;sketch=0;fontColor=#143642;strokeColor=#0F8B8D;fillColor=#FAE5C7;" parent="Pc65MUVskpiPOQCiwG1j-1" vertex="1">
          <mxGeometry x="-500" y="160" width="150" height="40" as="geometry" />
        </mxCell>
        <mxCell id="xzXZEJooZxsXrAsBJuVu-5" style="edgeStyle=orthogonalEdgeStyle;curved=0;rounded=1;sketch=0;orthogonalLoop=1;jettySize=auto;html=1;exitX=0.5;exitY=1;exitDx=0;exitDy=0;entryX=0.5;entryY=0;entryDx=0;entryDy=0;fontColor=#143642;strokeColor=#A8201A;fillColor=#FAE5C7;" parent="Pc65MUVskpiPOQCiwG1j-1" source="Pc65MUVskpiPOQCiwG1j-10" target="xzXZEJooZxsXrAsBJuVu-0" edge="1">
          <mxGeometry relative="1" as="geometry" />
        </mxCell>
        <mxCell id="Pc65MUVskpiPOQCiwG1j-10" value="&lt;b&gt;Unlock&lt;/b&gt; &lt;i&gt;mutSend&lt;/i&gt;" style="rounded=0;whiteSpace=wrap;html=1;sketch=0;fontColor=#143642;strokeColor=#0F8B8D;fillColor=#FAE5C7;" parent="Pc65MUVskpiPOQCiwG1j-1" vertex="1">
          <mxGeometry x="-500.26" y="340" width="150" height="40" as="geometry" />
        </mxCell>
        <mxCell id="xzXZEJooZxsXrAsBJuVu-3" style="edgeStyle=orthogonalEdgeStyle;curved=0;rounded=1;sketch=0;orthogonalLoop=1;jettySize=auto;html=1;exitX=0.5;exitY=1;exitDx=0;exitDy=0;fontColor=#143642;strokeColor=#A8201A;fillColor=#FAE5C7;" parent="Pc65MUVskpiPOQCiwG1j-1" source="566tL3dW4CICdEZEd5tv-0" target="XkMnaU7kAmmjsHVC0Ths-0" edge="1">
          <mxGeometry relative="1" as="geometry" />
        </mxCell>
        <mxCell id="566tL3dW4CICdEZEd5tv-0" value="&lt;b&gt;Push &lt;/b&gt;&lt;i&gt;msg&lt;/i&gt; to &lt;i&gt;queued_msgs&lt;/i&gt;" style="rounded=0;whiteSpace=wrap;html=1;sketch=0;fontColor=#143642;strokeColor=#0F8B8D;fillColor=#FAE5C7;" parent="Pc65MUVskpiPOQCiwG1j-1" vertex="1">
          <mxGeometry x="-500.25" y="220" width="150.25" height="40" as="geometry" />
        </mxCell>
        <mxCell id="xzXZEJooZxsXrAsBJuVu-4" style="edgeStyle=orthogonalEdgeStyle;curved=0;rounded=1;sketch=0;orthogonalLoop=1;jettySize=auto;html=1;exitX=0.5;exitY=1;exitDx=0;exitDy=0;fontColor=#143642;strokeColor=#A8201A;fillColor=#FAE5C7;" parent="Pc65MUVskpiPOQCiwG1j-1" source="XkMnaU7kAmmjsHVC0Ths-0" target="Pc65MUVskpiPOQCiwG1j-10" edge="1">
          <mxGeometry relative="1" as="geometry" />
        </mxCell>
        <mxCell id="XkMnaU7kAmmjsHVC0Ths-0" value="&lt;b&gt;Signal&lt;/b&gt; &lt;i&gt;condSend&lt;/i&gt;" style="rounded=0;whiteSpace=wrap;html=1;sketch=0;fontColor=#143642;strokeColor=#0F8B8D;fillColor=#FAE5C7;" parent="Pc65MUVskpiPOQCiwG1j-1" vertex="1">
          <mxGeometry x="-500.25" y="280" width="150" height="40" as="geometry" />
        </mxCell>
        <mxCell id="xzXZEJooZxsXrAsBJuVu-0" value="End" style="ellipse;whiteSpace=wrap;html=1;fillColor=#FAE5C7;strokeColor=#0F8B8D;fontColor=#143642;fontStyle=1" parent="Pc65MUVskpiPOQCiwG1j-1" vertex="1">
          <mxGeometry x="-454.38" y="410" width="58.25" height="40" as="geometry" />
        </mxCell>
      </root>
    </mxGraphModel>
  </diagram>
  <diagram name="tLoraSend" id="RGA5nEG9uMF0kkzzjcRO">
    <mxGraphModel dx="2200" dy="764" grid="1" gridSize="10" guides="1" tooltips="1" connect="1" arrows="1" fold="1" page="1" pageScale="1" pageWidth="850" pageHeight="1100" background="none" math="0" shadow="0">
      <root>
        <mxCell id="6ZPpjvBLr2ZM-foIgfbG-0" />
        <mxCell id="6ZPpjvBLr2ZM-foIgfbG-1" parent="6ZPpjvBLr2ZM-foIgfbG-0" />
        <mxCell id="ec9UNqavbsnshwp4Sz8o-13" style="edgeStyle=orthogonalEdgeStyle;curved=0;rounded=1;sketch=0;orthogonalLoop=1;jettySize=auto;html=1;exitX=0.5;exitY=1;exitDx=0;exitDy=0;entryX=0.5;entryY=0;entryDx=0;entryDy=0;fontColor=#143642;strokeColor=#A8201A;fillColor=#FAE5C7;" parent="6ZPpjvBLr2ZM-foIgfbG-1" source="6ZPpjvBLr2ZM-foIgfbG-3" target="6ZPpjvBLr2ZM-foIgfbG-5" edge="1">
          <mxGeometry relative="1" as="geometry" />
        </mxCell>
        <mxCell id="6ZPpjvBLr2ZM-foIgfbG-3" value="tLoraSend" style="ellipse;whiteSpace=wrap;html=1;fillColor=#FAE5C7;strokeColor=#0F8B8D;fontColor=#143642;fontStyle=1" parent="6ZPpjvBLr2ZM-foIgfbG-1" vertex="1">
          <mxGeometry x="-488" width="125.5" height="50" as="geometry" />
        </mxCell>
        <mxCell id="ec9UNqavbsnshwp4Sz8o-14" style="edgeStyle=orthogonalEdgeStyle;curved=0;rounded=1;sketch=0;orthogonalLoop=1;jettySize=auto;html=1;exitX=0.5;exitY=1;exitDx=0;exitDy=0;entryX=0.5;entryY=0;entryDx=0;entryDy=0;fontColor=#143642;strokeColor=#A8201A;fillColor=#FAE5C7;" parent="6ZPpjvBLr2ZM-foIgfbG-1" source="6ZPpjvBLr2ZM-foIgfbG-5" target="6ZPpjvBLr2ZM-foIgfbG-7" edge="1">
          <mxGeometry relative="1" as="geometry" />
        </mxCell>
        <mxCell id="6ZPpjvBLr2ZM-foIgfbG-5" value="" style="ellipse;whiteSpace=wrap;html=1;aspect=fixed;rounded=0;sketch=0;fontColor=#143642;strokeColor=#0F8B8D;fillColor=#FAE5C7;" parent="6ZPpjvBLr2ZM-foIgfbG-1" vertex="1">
          <mxGeometry x="-435.25" y="70" width="20" height="20" as="geometry" />
        </mxCell>
        <mxCell id="ec9UNqavbsnshwp4Sz8o-5" style="edgeStyle=orthogonalEdgeStyle;curved=0;rounded=1;sketch=0;orthogonalLoop=1;jettySize=auto;html=1;exitX=0.5;exitY=1;exitDx=0;exitDy=0;entryX=0.5;entryY=0;entryDx=0;entryDy=0;fontColor=#143642;strokeColor=#A8201A;fillColor=#FAE5C7;" parent="6ZPpjvBLr2ZM-foIgfbG-1" source="6ZPpjvBLr2ZM-foIgfbG-7" target="ec9UNqavbsnshwp4Sz8o-0" edge="1">
          <mxGeometry relative="1" as="geometry" />
        </mxCell>
        <mxCell id="6ZPpjvBLr2ZM-foIgfbG-7" value="&lt;b&gt;Lock&lt;/b&gt; &lt;i&gt;mutSend&lt;/i&gt;" style="rounded=0;whiteSpace=wrap;html=1;sketch=0;fontColor=#143642;strokeColor=#0F8B8D;fillColor=#FAE5C7;" parent="6ZPpjvBLr2ZM-foIgfbG-1" vertex="1">
          <mxGeometry x="-500" y="110" width="150" height="40" as="geometry" />
        </mxCell>
        <mxCell id="6ZPpjvBLr2ZM-foIgfbG-8" value="condSend" style="edgeStyle=orthogonalEdgeStyle;curved=0;rounded=1;sketch=0;orthogonalLoop=1;jettySize=auto;html=1;fontColor=#143642;strokeColor=#A8201A;fillColor=#FAE5C7;entryX=1;entryY=0.5;entryDx=0;entryDy=0;fontStyle=2" parent="6ZPpjvBLr2ZM-foIgfbG-1" source="6ZPpjvBLr2ZM-foIgfbG-9" target="ec9UNqavbsnshwp4Sz8o-4" edge="1">
          <mxGeometry x="-0.6671" relative="1" as="geometry">
            <mxPoint x="-425.4999999999999" y="349.9999999999999" as="targetPoint" />
            <Array as="points">
              <mxPoint x="-325" y="310" />
            </Array>
            <mxPoint as="offset" />
          </mxGeometry>
        </mxCell>
        <mxCell id="6ZPpjvBLr2ZM-foIgfbG-9" value="&lt;b&gt;Wait&lt;/b&gt; for &lt;i&gt;condSend&lt;/i&gt;" style="rounded=0;whiteSpace=wrap;html=1;sketch=0;fontColor=#143642;strokeColor=#0F8B8D;fillColor=#FAE5C7;" parent="6ZPpjvBLr2ZM-foIgfbG-1" vertex="1">
          <mxGeometry x="-400" y="250" width="150" height="40" as="geometry" />
        </mxCell>
        <mxCell id="ec9UNqavbsnshwp4Sz8o-12" style="edgeStyle=orthogonalEdgeStyle;curved=0;rounded=1;sketch=0;orthogonalLoop=1;jettySize=auto;html=1;exitX=0.5;exitY=1;exitDx=0;exitDy=0;entryX=1;entryY=0.5;entryDx=0;entryDy=0;fontColor=#143642;strokeColor=#A8201A;fillColor=#FAE5C7;" parent="6ZPpjvBLr2ZM-foIgfbG-1" source="6ZPpjvBLr2ZM-foIgfbG-13" target="6ZPpjvBLr2ZM-foIgfbG-5" edge="1">
          <mxGeometry relative="1" as="geometry">
            <Array as="points">
              <mxPoint x="-425" y="640" />
              <mxPoint x="-230" y="640" />
              <mxPoint x="-230" y="80" />
            </Array>
          </mxGeometry>
        </mxCell>
        <mxCell id="6ZPpjvBLr2ZM-foIgfbG-13" value="&lt;b&gt;Unlock&lt;/b&gt; &lt;i&gt;mutSend&lt;/i&gt;" style="rounded=0;whiteSpace=wrap;html=1;sketch=0;fontColor=#143642;strokeColor=#0F8B8D;fillColor=#FAE5C7;" parent="6ZPpjvBLr2ZM-foIgfbG-1" vertex="1">
          <mxGeometry x="-500.38" y="590" width="150" height="40" as="geometry" />
        </mxCell>
        <mxCell id="KteHW3fOhNwhYVBrbNWo-1" value="" style="edgeStyle=orthogonalEdgeStyle;curved=0;rounded=1;sketch=0;orthogonalLoop=1;jettySize=auto;html=1;fontColor=#143642;strokeColor=#A8201A;fillColor=#FAE5C7;" parent="6ZPpjvBLr2ZM-foIgfbG-1" source="PijtJQCs1HvSi1f1vbHh-0" target="KteHW3fOhNwhYVBrbNWo-0" edge="1">
          <mxGeometry relative="1" as="geometry" />
        </mxCell>
        <mxCell id="PijtJQCs1HvSi1f1vbHh-0" value="&lt;b&gt;Lock&lt;/b&gt; &lt;i&gt;mutComms&lt;/i&gt;" style="rounded=0;whiteSpace=wrap;html=1;sketch=0;fontColor=#143642;strokeColor=#0F8B8D;fillColor=#FAE5C7;" parent="6ZPpjvBLr2ZM-foIgfbG-1" vertex="1">
          <mxGeometry x="-500" y="350" width="150" height="40" as="geometry" />
        </mxCell>
        <mxCell id="ZXO7GdbtIRG4TZ7W4dZn-4" value="" style="edgeStyle=orthogonalEdgeStyle;rounded=1;sketch=0;orthogonalLoop=1;jettySize=auto;html=1;fontColor=#143642;strokeColor=#A8201A;fillColor=#FAE5C7;" parent="6ZPpjvBLr2ZM-foIgfbG-1" source="PmDaLgrR-OTf5r7a0wcz-0" target="ZXO7GdbtIRG4TZ7W4dZn-0" edge="1">
          <mxGeometry relative="1" as="geometry" />
        </mxCell>
        <mxCell id="PmDaLgrR-OTf5r7a0wcz-0" value="&lt;b&gt;LoraSend&lt;/b&gt;(&lt;i&gt;msg&lt;/i&gt;)" style="shape=process;whiteSpace=wrap;html=1;backgroundOutline=1;rounded=0;sketch=0;fontColor=#143642;strokeColor=#0F8B8D;fillColor=#FAE5C7;" parent="6ZPpjvBLr2ZM-foIgfbG-1" vertex="1">
          <mxGeometry x="-500.38" y="470" width="150" height="40" as="geometry" />
        </mxCell>
        <mxCell id="ZXO7GdbtIRG4TZ7W4dZn-5" value="" style="edgeStyle=orthogonalEdgeStyle;rounded=1;sketch=0;orthogonalLoop=1;jettySize=auto;html=1;fontColor=#143642;strokeColor=#A8201A;fillColor=#FAE5C7;" parent="6ZPpjvBLr2ZM-foIgfbG-1" source="ZXO7GdbtIRG4TZ7W4dZn-0" target="6ZPpjvBLr2ZM-foIgfbG-13" edge="1">
          <mxGeometry relative="1" as="geometry" />
        </mxCell>
        <mxCell id="ZXO7GdbtIRG4TZ7W4dZn-0" value="&lt;b&gt;Unlock&lt;/b&gt; &lt;i&gt;mutComms&lt;/i&gt;" style="rounded=0;whiteSpace=wrap;html=1;sketch=0;fontColor=#143642;strokeColor=#0F8B8D;fillColor=#FAE5C7;" parent="6ZPpjvBLr2ZM-foIgfbG-1" vertex="1">
          <mxGeometry x="-500" y="530" width="150" height="40" as="geometry" />
        </mxCell>
        <mxCell id="ec9UNqavbsnshwp4Sz8o-2" style="edgeStyle=orthogonalEdgeStyle;curved=0;rounded=1;sketch=0;orthogonalLoop=1;jettySize=auto;html=1;exitX=0;exitY=0.5;exitDx=0;exitDy=0;fontColor=#143642;strokeColor=#A8201A;fillColor=#FAE5C7;entryX=0;entryY=0.5;entryDx=0;entryDy=0;" parent="6ZPpjvBLr2ZM-foIgfbG-1" source="ec9UNqavbsnshwp4Sz8o-0" target="ec9UNqavbsnshwp4Sz8o-4" edge="1">
          <mxGeometry relative="1" as="geometry">
            <mxPoint x="-430" y="339.9999999999999" as="targetPoint" />
            <Array as="points">
              <mxPoint x="-520" y="210" />
              <mxPoint x="-520" y="310" />
            </Array>
          </mxGeometry>
        </mxCell>
        <mxCell id="ec9UNqavbsnshwp4Sz8o-9" value="No" style="edgeLabel;html=1;align=center;verticalAlign=middle;resizable=0;points=[];fontColor=#143642;" parent="ec9UNqavbsnshwp4Sz8o-2" vertex="1" connectable="0">
          <mxGeometry x="-0.8786" relative="1" as="geometry">
            <mxPoint as="offset" />
          </mxGeometry>
        </mxCell>
        <mxCell id="ec9UNqavbsnshwp4Sz8o-3" style="edgeStyle=orthogonalEdgeStyle;curved=0;rounded=1;sketch=0;orthogonalLoop=1;jettySize=auto;html=1;exitX=1;exitY=0.5;exitDx=0;exitDy=0;entryX=0.5;entryY=0;entryDx=0;entryDy=0;fontColor=#143642;strokeColor=#A8201A;fillColor=#FAE5C7;" parent="6ZPpjvBLr2ZM-foIgfbG-1" source="ec9UNqavbsnshwp4Sz8o-0" target="6ZPpjvBLr2ZM-foIgfbG-9" edge="1">
          <mxGeometry relative="1" as="geometry" />
        </mxCell>
        <mxCell id="ec9UNqavbsnshwp4Sz8o-8" value="Yes" style="edgeLabel;html=1;align=center;verticalAlign=middle;resizable=0;points=[];fontColor=#143642;" parent="ec9UNqavbsnshwp4Sz8o-3" vertex="1" connectable="0">
          <mxGeometry x="-0.7996" y="-1" relative="1" as="geometry">
            <mxPoint as="offset" />
          </mxGeometry>
        </mxCell>
        <mxCell id="ec9UNqavbsnshwp4Sz8o-0" value="Is &lt;i&gt;queued_msgs&lt;/i&gt; empty?" style="rhombus;whiteSpace=wrap;html=1;rounded=0;sketch=0;fontColor=#143642;strokeColor=#0F8B8D;fillColor=#FAE5C7;" parent="6ZPpjvBLr2ZM-foIgfbG-1" vertex="1">
          <mxGeometry x="-468" y="170" width="85.5" height="80" as="geometry" />
        </mxCell>
        <mxCell id="ec9UNqavbsnshwp4Sz8o-6" style="edgeStyle=orthogonalEdgeStyle;curved=0;rounded=1;sketch=0;orthogonalLoop=1;jettySize=auto;html=1;exitX=0.5;exitY=1;exitDx=0;exitDy=0;entryX=0.5;entryY=0;entryDx=0;entryDy=0;fontColor=#143642;strokeColor=#A8201A;fillColor=#FAE5C7;" parent="6ZPpjvBLr2ZM-foIgfbG-1" source="ec9UNqavbsnshwp4Sz8o-4" target="PijtJQCs1HvSi1f1vbHh-0" edge="1">
          <mxGeometry relative="1" as="geometry" />
        </mxCell>
        <mxCell id="ec9UNqavbsnshwp4Sz8o-4" value="" style="ellipse;whiteSpace=wrap;html=1;aspect=fixed;rounded=0;sketch=0;fontColor=#143642;strokeColor=#0F8B8D;fillColor=#FAE5C7;" parent="6ZPpjvBLr2ZM-foIgfbG-1" vertex="1">
          <mxGeometry x="-435" y="300" width="20" height="20" as="geometry" />
        </mxCell>
        <mxCell id="ec9UNqavbsnshwp4Sz8o-10" value="Continue to send queued messages" style="shape=note;whiteSpace=wrap;html=1;backgroundOutline=1;darkOpacity=0.05;rounded=0;sketch=0;fontColor=#143642;strokeColor=#0F8B8D;fillColor=#FAE5C7;size=15;fontSize=11;" parent="6ZPpjvBLr2ZM-foIgfbG-1" vertex="1">
          <mxGeometry x="-650" y="190" width="100" height="50" as="geometry" />
        </mxCell>
        <mxCell id="ec9UNqavbsnshwp4Sz8o-11" value="" style="endArrow=none;dashed=1;html=1;rounded=1;sketch=0;fontColor=#143642;strokeColor=#A8201A;fillColor=#FAE5C7;curved=0;exitX=0;exitY=0;exitDx=100;exitDy=15;exitPerimeter=0;" parent="6ZPpjvBLr2ZM-foIgfbG-1" source="ec9UNqavbsnshwp4Sz8o-10" edge="1">
          <mxGeometry width="50" height="50" relative="1" as="geometry">
            <mxPoint x="-600" y="300" as="sourcePoint" />
            <mxPoint x="-520" y="220" as="targetPoint" />
          </mxGeometry>
        </mxCell>
        <mxCell id="KteHW3fOhNwhYVBrbNWo-3" style="edgeStyle=orthogonalEdgeStyle;curved=0;rounded=1;sketch=0;orthogonalLoop=1;jettySize=auto;html=1;exitX=0.5;exitY=1;exitDx=0;exitDy=0;entryX=0.5;entryY=0;entryDx=0;entryDy=0;fontColor=#143642;strokeColor=#A8201A;fillColor=#FAE5C7;" parent="6ZPpjvBLr2ZM-foIgfbG-1" source="KteHW3fOhNwhYVBrbNWo-0" target="PmDaLgrR-OTf5r7a0wcz-0" edge="1">
          <mxGeometry relative="1" as="geometry" />
        </mxCell>
        <mxCell id="KteHW3fOhNwhYVBrbNWo-0" value="&lt;b&gt;Pop &lt;/b&gt;&lt;i&gt;msg &lt;/i&gt;from &lt;i&gt;queued_msgs&lt;/i&gt;" style="rounded=0;whiteSpace=wrap;html=1;sketch=0;fontColor=#143642;strokeColor=#0F8B8D;fillColor=#FAE5C7;" parent="6ZPpjvBLr2ZM-foIgfbG-1" vertex="1">
          <mxGeometry x="-500" y="410" width="150" height="40" as="geometry" />
        </mxCell>
      </root>
    </mxGraphModel>
  </diagram>
  <diagram name="tLoraRecv" id="0WbtY79F4Cu1o5Ce8Okv">
    <mxGraphModel dx="2200" dy="764" grid="1" gridSize="10" guides="1" tooltips="1" connect="1" arrows="1" fold="1" page="1" pageScale="1" pageWidth="850" pageHeight="1100" background="none" math="0" shadow="0">
      <root>
        <mxCell id="Pw5umfQ0hP8HBKfbfsgT-0" />
        <mxCell id="Pw5umfQ0hP8HBKfbfsgT-1" parent="Pw5umfQ0hP8HBKfbfsgT-0" />
        <mxCell id="Pw5umfQ0hP8HBKfbfsgT-2" style="edgeStyle=orthogonalEdgeStyle;curved=0;rounded=1;sketch=0;orthogonalLoop=1;jettySize=auto;html=1;exitX=0.5;exitY=1;exitDx=0;exitDy=0;entryX=0.5;entryY=0;entryDx=0;entryDy=0;fontColor=#143642;strokeColor=#A8201A;fillColor=#FAE5C7;" parent="Pw5umfQ0hP8HBKfbfsgT-1" source="Pw5umfQ0hP8HBKfbfsgT-3" target="Pw5umfQ0hP8HBKfbfsgT-5" edge="1">
          <mxGeometry relative="1" as="geometry" />
        </mxCell>
        <mxCell id="Pw5umfQ0hP8HBKfbfsgT-3" value="tLoraRecv" style="ellipse;whiteSpace=wrap;html=1;fillColor=#FAE5C7;strokeColor=#0F8B8D;fontColor=#143642;fontStyle=1" parent="Pw5umfQ0hP8HBKfbfsgT-1" vertex="1">
          <mxGeometry x="-488" y="70" width="125.5" height="50" as="geometry" />
        </mxCell>
        <mxCell id="Pw5umfQ0hP8HBKfbfsgT-4" style="edgeStyle=orthogonalEdgeStyle;curved=0;rounded=1;sketch=0;orthogonalLoop=1;jettySize=auto;html=1;exitX=0.5;exitY=1;exitDx=0;exitDy=0;entryX=0.5;entryY=0;entryDx=0;entryDy=0;fontColor=#143642;strokeColor=#A8201A;fillColor=#FAE5C7;" parent="Pw5umfQ0hP8HBKfbfsgT-1" source="Pw5umfQ0hP8HBKfbfsgT-5" target="Pw5umfQ0hP8HBKfbfsgT-7" edge="1">
          <mxGeometry relative="1" as="geometry" />
        </mxCell>
        <mxCell id="Pw5umfQ0hP8HBKfbfsgT-5" value="" style="ellipse;whiteSpace=wrap;html=1;aspect=fixed;rounded=0;sketch=0;fontColor=#143642;strokeColor=#0F8B8D;fillColor=#FAE5C7;" parent="Pw5umfQ0hP8HBKfbfsgT-1" vertex="1">
          <mxGeometry x="-435" y="160" width="20" height="20" as="geometry" />
        </mxCell>
        <mxCell id="Pw5umfQ0hP8HBKfbfsgT-6" value="" style="edgeStyle=orthogonalEdgeStyle;curved=0;rounded=1;sketch=0;orthogonalLoop=1;jettySize=auto;html=1;fontColor=#143642;strokeColor=#A8201A;fillColor=#FAE5C7;" parent="Pw5umfQ0hP8HBKfbfsgT-1" source="Pw5umfQ0hP8HBKfbfsgT-7" edge="1">
          <mxGeometry relative="1" as="geometry">
            <mxPoint x="-425" y="259.9999999999999" as="targetPoint" />
          </mxGeometry>
        </mxCell>
        <mxCell id="Pw5umfQ0hP8HBKfbfsgT-7" value="&lt;div&gt;&lt;b&gt;Lock&lt;/b&gt; &lt;i&gt;mutComms&lt;/i&gt;&lt;/div&gt;" style="rounded=0;whiteSpace=wrap;html=1;sketch=0;fontColor=#143642;strokeColor=#0F8B8D;fillColor=#FAE5C7;" parent="Pw5umfQ0hP8HBKfbfsgT-1" vertex="1">
          <mxGeometry x="-500" y="200" width="150" height="40" as="geometry" />
        </mxCell>
        <mxCell id="Pw5umfQ0hP8HBKfbfsgT-8" value="Returns &lt;i&gt;message&lt;/i&gt;" style="edgeStyle=orthogonalEdgeStyle;curved=0;rounded=1;sketch=0;orthogonalLoop=1;jettySize=auto;html=1;fontColor=#143642;strokeColor=#A8201A;fillColor=#FAE5C7;entryX=0.5;entryY=0;entryDx=0;entryDy=0;" parent="Pw5umfQ0hP8HBKfbfsgT-1" target="Pw5umfQ0hP8HBKfbfsgT-13" edge="1">
          <mxGeometry relative="1" as="geometry">
            <mxPoint x="-425" y="299.9999999999999" as="sourcePoint" />
            <mxPoint x="-425.4999999999999" y="349.9999999999999" as="targetPoint" />
          </mxGeometry>
        </mxCell>
        <mxCell id="4tTFrwctF4CoQ40aPv5f-1" style="edgeStyle=orthogonalEdgeStyle;rounded=1;sketch=0;orthogonalLoop=1;jettySize=auto;html=1;exitX=0.5;exitY=1;exitDx=0;exitDy=0;entryX=0;entryY=0.5;entryDx=0;entryDy=0;fontColor=#143642;strokeColor=#A8201A;fillColor=#FAE5C7;" parent="Pw5umfQ0hP8HBKfbfsgT-1" source="Pw5umfQ0hP8HBKfbfsgT-10" target="Pw5umfQ0hP8HBKfbfsgT-5" edge="1">
          <mxGeometry relative="1" as="geometry">
            <Array as="points">
              <mxPoint x="-425" y="690" />
              <mxPoint x="-570" y="690" />
              <mxPoint x="-570" y="170" />
            </Array>
          </mxGeometry>
        </mxCell>
        <mxCell id="Pw5umfQ0hP8HBKfbfsgT-10" value="&lt;b&gt;Execute&lt;/b&gt; &lt;i&gt;command&lt;/i&gt;" style="rounded=0;whiteSpace=wrap;html=1;sketch=0;fontColor=#143642;strokeColor=#0F8B8D;fillColor=#FAE5C7;" parent="Pw5umfQ0hP8HBKfbfsgT-1" vertex="1">
          <mxGeometry x="-500.25" y="630" width="150" height="40" as="geometry" />
        </mxCell>
        <mxCell id="Pw5umfQ0hP8HBKfbfsgT-11" style="edgeStyle=orthogonalEdgeStyle;curved=0;rounded=1;sketch=0;orthogonalLoop=1;jettySize=auto;html=1;exitX=1;exitY=0.5;exitDx=0;exitDy=0;entryX=1;entryY=0.5;entryDx=0;entryDy=0;fontColor=#143642;strokeColor=#A8201A;fillColor=#FAE5C7;" parent="Pw5umfQ0hP8HBKfbfsgT-1" source="iNUouUhRTITk8NM0t00v-0" target="Pw5umfQ0hP8HBKfbfsgT-5" edge="1">
          <mxGeometry relative="1" as="geometry">
            <mxPoint x="-382.7500000000001" y="660" as="sourcePoint" />
            <Array as="points">
              <mxPoint x="-310" y="455" />
              <mxPoint x="-310" y="170" />
            </Array>
          </mxGeometry>
        </mxCell>
        <mxCell id="VHwuukyjGVTCq5X11j34-1" value="No" style="edgeLabel;html=1;align=center;verticalAlign=middle;resizable=0;points=[];fontColor=#143642;" parent="Pw5umfQ0hP8HBKfbfsgT-11" vertex="1" connectable="0">
          <mxGeometry x="-0.9582" y="2" relative="1" as="geometry">
            <mxPoint as="offset" />
          </mxGeometry>
        </mxCell>
        <mxCell id="VHwuukyjGVTCq5X11j34-0" value="" style="edgeStyle=orthogonalEdgeStyle;rounded=1;sketch=0;orthogonalLoop=1;jettySize=auto;html=1;fontColor=#143642;strokeColor=#A8201A;fillColor=#FAE5C7;" parent="Pw5umfQ0hP8HBKfbfsgT-1" source="Pw5umfQ0hP8HBKfbfsgT-13" target="iNUouUhRTITk8NM0t00v-0" edge="1">
          <mxGeometry relative="1" as="geometry" />
        </mxCell>
        <mxCell id="Pw5umfQ0hP8HBKfbfsgT-13" value="&lt;b&gt;Unlock&lt;/b&gt; &lt;i&gt;mutComms&lt;/i&gt;" style="rounded=0;whiteSpace=wrap;html=1;sketch=0;fontColor=#143642;strokeColor=#0F8B8D;fillColor=#FAE5C7;" parent="Pw5umfQ0hP8HBKfbfsgT-1" vertex="1">
          <mxGeometry x="-500.25" y="350" width="150" height="40" as="geometry" />
        </mxCell>
        <mxCell id="Pw5umfQ0hP8HBKfbfsgT-15" value="&lt;b&gt;LoraReceive()&lt;/b&gt;" style="shape=process;whiteSpace=wrap;html=1;backgroundOutline=1;rounded=0;sketch=0;fontColor=#143642;strokeColor=#0F8B8D;fillColor=#FAE5C7;" parent="Pw5umfQ0hP8HBKfbfsgT-1" vertex="1">
          <mxGeometry x="-500" y="260" width="150" height="40" as="geometry" />
        </mxCell>
        <mxCell id="4tTFrwctF4CoQ40aPv5f-0" value="Returns &lt;i&gt;command&lt;/i&gt;" style="edgeStyle=orthogonalEdgeStyle;rounded=1;sketch=0;orthogonalLoop=1;jettySize=auto;html=1;fontColor=#143642;strokeColor=#A8201A;fillColor=#FAE5C7;" parent="Pw5umfQ0hP8HBKfbfsgT-1" source="Pw5umfQ0hP8HBKfbfsgT-19" target="Pw5umfQ0hP8HBKfbfsgT-10" edge="1">
          <mxGeometry relative="1" as="geometry" />
        </mxCell>
        <mxCell id="Pw5umfQ0hP8HBKfbfsgT-19" value="&lt;b&gt;parse&lt;/b&gt;(&lt;i&gt;message&lt;/i&gt;)" style="shape=process;whiteSpace=wrap;html=1;backgroundOutline=1;rounded=0;sketch=0;fontColor=#143642;strokeColor=#0F8B8D;fillColor=#FAE5C7;" parent="Pw5umfQ0hP8HBKfbfsgT-1" vertex="1">
          <mxGeometry x="-500.25" y="540" width="150" height="40" as="geometry" />
        </mxCell>
        <mxCell id="HGYTzw5tQV76-3NAWnD_-0" style="edgeStyle=orthogonalEdgeStyle;sketch=0;orthogonalLoop=1;jettySize=auto;html=1;exitX=0;exitY=0.5;exitDx=0;exitDy=0;entryX=0.5;entryY=0;entryDx=0;entryDy=0;fontColor=#143642;strokeColor=#A8201A;fillColor=#FAE5C7;rounded=1;" parent="Pw5umfQ0hP8HBKfbfsgT-1" source="iNUouUhRTITk8NM0t00v-0" target="Pw5umfQ0hP8HBKfbfsgT-19" edge="1">
          <mxGeometry relative="1" as="geometry">
            <Array as="points">
              <mxPoint x="-520" y="455" />
              <mxPoint x="-520" y="520" />
              <mxPoint x="-425" y="520" />
            </Array>
          </mxGeometry>
        </mxCell>
        <mxCell id="VHwuukyjGVTCq5X11j34-2" value="Yes" style="edgeLabel;html=1;align=center;verticalAlign=middle;resizable=0;points=[];fontColor=#143642;" parent="HGYTzw5tQV76-3NAWnD_-0" vertex="1" connectable="0">
          <mxGeometry x="-0.9088" y="-1" relative="1" as="geometry">
            <mxPoint as="offset" />
          </mxGeometry>
        </mxCell>
        <mxCell id="iNUouUhRTITk8NM0t00v-0" value="&lt;div&gt;&lt;i&gt;message&lt;/i&gt; was&lt;/div&gt;&lt;div&gt;received?&lt;br&gt;&lt;/div&gt;" style="rhombus;whiteSpace=wrap;html=1;rounded=0;sketch=0;fontColor=#143642;strokeColor=#0F8B8D;fillColor=#FAE5C7;" parent="Pw5umfQ0hP8HBKfbfsgT-1" vertex="1">
          <mxGeometry x="-474.25" y="410" width="98" height="90" as="geometry" />
        </mxCell>
      </root>
    </mxGraphModel>
  </diagram>
  <diagram id="oXGI9VJPM_NHcqEIXhrw" name="tRecvSensors">
    <mxGraphModel dx="2200" dy="764" grid="1" gridSize="10" guides="1" tooltips="1" connect="1" arrows="1" fold="1" page="1" pageScale="1" pageWidth="850" pageHeight="1100" math="0" shadow="0">
      <root>
        <mxCell id="OOd3J3-Gxl5Cu8NG0Uni-0" />
        <mxCell id="OOd3J3-Gxl5Cu8NG0Uni-1" parent="OOd3J3-Gxl5Cu8NG0Uni-0" />
        <mxCell id="GCGXlIYydK_MN56B1ds3-3" style="edgeStyle=orthogonalEdgeStyle;curved=0;rounded=1;sketch=0;orthogonalLoop=1;jettySize=auto;html=1;exitX=0.5;exitY=1;exitDx=0;exitDy=0;entryX=0.5;entryY=0;entryDx=0;entryDy=0;fontSize=11;fontColor=#143642;strokeColor=#A8201A;fillColor=#FAE5C7;" parent="OOd3J3-Gxl5Cu8NG0Uni-1" source="2rlOimkvAiwXD3DDtxZt-1" target="GCGXlIYydK_MN56B1ds3-2" edge="1">
          <mxGeometry relative="1" as="geometry" />
        </mxCell>
        <mxCell id="2rlOimkvAiwXD3DDtxZt-1" value="&lt;div&gt;tRecvSensors&lt;/div&gt;" style="ellipse;whiteSpace=wrap;html=1;fillColor=#FAE5C7;strokeColor=#0F8B8D;fontColor=#143642;fontStyle=1" parent="OOd3J3-Gxl5Cu8NG0Uni-1" vertex="1">
          <mxGeometry x="-488.25" y="50" width="125.5" height="50" as="geometry" />
        </mxCell>
        <mxCell id="-UsF7wl5NZM5rKmS7TcJ-1" value="Returns &lt;i&gt;message&lt;/i&gt;" style="edgeStyle=orthogonalEdgeStyle;curved=0;rounded=1;sketch=0;orthogonalLoop=1;jettySize=auto;html=1;exitX=0.5;exitY=1;exitDx=0;exitDy=0;entryX=0.5;entryY=0;entryDx=0;entryDy=0;fontSize=11;fontColor=#143642;strokeColor=#A8201A;fillColor=#FAE5C7;" parent="OOd3J3-Gxl5Cu8NG0Uni-1" source="2rlOimkvAiwXD3DDtxZt-7" target="-UsF7wl5NZM5rKmS7TcJ-0" edge="1">
          <mxGeometry relative="1" as="geometry" />
        </mxCell>
        <mxCell id="2rlOimkvAiwXD3DDtxZt-7" value="&lt;b&gt;Read&lt;/b&gt; from &lt;i&gt;message_queue&lt;/i&gt;" style="rounded=0;whiteSpace=wrap;html=1;sketch=0;fontColor=#143642;strokeColor=#0F8B8D;fillColor=#FAE5C7;" parent="OOd3J3-Gxl5Cu8NG0Uni-1" vertex="1">
          <mxGeometry x="-499.61" y="340" width="150.25" height="40" as="geometry" />
        </mxCell>
        <mxCell id="2rlOimkvAiwXD3DDtxZt-8" value="Returns &lt;i&gt;command&lt;/i&gt;" style="edgeStyle=orthogonalEdgeStyle;curved=0;rounded=1;sketch=0;orthogonalLoop=1;jettySize=auto;html=1;exitX=0.5;exitY=1;exitDx=0;exitDy=0;fontColor=#143642;strokeColor=#A8201A;fillColor=#FAE5C7;entryX=0.5;entryY=0;entryDx=0;entryDy=0;" parent="OOd3J3-Gxl5Cu8NG0Uni-1" target="JXZbbuT-8OM8TC3y9X0U-0" edge="1">
          <mxGeometry relative="1" as="geometry">
            <mxPoint x="-424.86" y="460" as="sourcePoint" />
            <mxPoint x="-424.89571428571423" y="490" as="targetPoint" />
          </mxGeometry>
        </mxCell>
        <mxCell id="-UsF7wl5NZM5rKmS7TcJ-0" value="&lt;b&gt;parse&lt;/b&gt;(&lt;i&gt;message&lt;/i&gt;)" style="shape=process;whiteSpace=wrap;html=1;backgroundOutline=1;rounded=0;sketch=0;fontColor=#143642;strokeColor=#0F8B8D;fillColor=#FAE5C7;" parent="OOd3J3-Gxl5Cu8NG0Uni-1" vertex="1">
          <mxGeometry x="-499.87" y="420" width="150" height="40" as="geometry" />
        </mxCell>
        <mxCell id="GCGXlIYydK_MN56B1ds3-8" style="edgeStyle=orthogonalEdgeStyle;curved=0;rounded=1;sketch=0;orthogonalLoop=1;jettySize=auto;html=1;exitX=0.5;exitY=1;exitDx=0;exitDy=0;entryX=1;entryY=0.5;entryDx=0;entryDy=0;fontSize=11;fontColor=#143642;strokeColor=#A8201A;fillColor=#FAE5C7;" parent="OOd3J3-Gxl5Cu8NG0Uni-1" source="JXZbbuT-8OM8TC3y9X0U-0" target="GCGXlIYydK_MN56B1ds3-0" edge="1">
          <mxGeometry relative="1" as="geometry">
            <Array as="points">
              <mxPoint x="-425" y="560" />
              <mxPoint x="-320" y="560" />
              <mxPoint x="-320" y="200" />
            </Array>
          </mxGeometry>
        </mxCell>
        <mxCell id="JXZbbuT-8OM8TC3y9X0U-0" value="&lt;b&gt;Execute&lt;/b&gt; &lt;i&gt;command&lt;/i&gt;" style="rounded=0;whiteSpace=wrap;html=1;sketch=0;fontColor=#143642;strokeColor=#0F8B8D;fillColor=#FAE5C7;" parent="OOd3J3-Gxl5Cu8NG0Uni-1" vertex="1">
          <mxGeometry x="-499.87" y="500" width="150" height="40" as="geometry" />
        </mxCell>
        <mxCell id="GCGXlIYydK_MN56B1ds3-6" style="edgeStyle=orthogonalEdgeStyle;curved=0;rounded=1;sketch=0;orthogonalLoop=1;jettySize=auto;html=1;exitX=1;exitY=0.5;exitDx=0;exitDy=0;fontSize=11;fontColor=#143642;strokeColor=#A8201A;fillColor=#FAE5C7;entryX=0.5;entryY=0;entryDx=0;entryDy=0;" parent="OOd3J3-Gxl5Cu8NG0Uni-1" source="jfCumX3kVW6e_XWRjReg-0" target="2rlOimkvAiwXD3DDtxZt-7" edge="1">
          <mxGeometry relative="1" as="geometry">
            <mxPoint x="-425" y="360" as="targetPoint" />
            <Array as="points">
              <mxPoint x="-340" y="275" />
              <mxPoint x="-340" y="320" />
              <mxPoint x="-425" y="320" />
            </Array>
          </mxGeometry>
        </mxCell>
        <mxCell id="GCGXlIYydK_MN56B1ds3-9" value="No" style="edgeLabel;html=1;align=center;verticalAlign=middle;resizable=0;points=[];fontSize=11;fontColor=#143642;" parent="GCGXlIYydK_MN56B1ds3-6" vertex="1" connectable="0">
          <mxGeometry x="-0.91" y="-1" relative="1" as="geometry">
            <mxPoint x="7" y="-1" as="offset" />
          </mxGeometry>
        </mxCell>
        <mxCell id="GCGXlIYydK_MN56B1ds3-7" style="edgeStyle=orthogonalEdgeStyle;curved=0;rounded=1;sketch=0;orthogonalLoop=1;jettySize=auto;html=1;exitX=0;exitY=0.5;exitDx=0;exitDy=0;entryX=0;entryY=0.5;entryDx=0;entryDy=0;fontSize=11;fontColor=#143642;strokeColor=#A8201A;fillColor=#FAE5C7;" parent="OOd3J3-Gxl5Cu8NG0Uni-1" source="jfCumX3kVW6e_XWRjReg-0" target="GCGXlIYydK_MN56B1ds3-0" edge="1">
          <mxGeometry relative="1" as="geometry">
            <Array as="points">
              <mxPoint x="-510" y="275" />
              <mxPoint x="-510" y="200" />
            </Array>
          </mxGeometry>
        </mxCell>
        <mxCell id="GCGXlIYydK_MN56B1ds3-10" value="Yes" style="edgeLabel;html=1;align=center;verticalAlign=middle;resizable=0;points=[];fontSize=11;fontColor=#143642;" parent="GCGXlIYydK_MN56B1ds3-7" vertex="1" connectable="0">
          <mxGeometry x="-0.8895" y="-1" relative="1" as="geometry">
            <mxPoint x="-5" y="1" as="offset" />
          </mxGeometry>
        </mxCell>
        <mxCell id="jfCumX3kVW6e_XWRjReg-0" value="&lt;div&gt;&lt;i&gt;message_queue&lt;/i&gt;&lt;br&gt;&lt;/div&gt;&lt;div&gt;is empty?&lt;/div&gt;" style="rhombus;whiteSpace=wrap;html=1;rounded=0;sketch=0;fontColor=#143642;strokeColor=#0F8B8D;fillColor=#FAE5C7;" parent="OOd3J3-Gxl5Cu8NG0Uni-1" vertex="1">
          <mxGeometry x="-481.73" y="230" width="114.49" height="90" as="geometry" />
        </mxCell>
        <mxCell id="GCGXlIYydK_MN56B1ds3-1" style="edgeStyle=orthogonalEdgeStyle;curved=0;rounded=1;sketch=0;orthogonalLoop=1;jettySize=auto;html=1;exitX=0.5;exitY=1;exitDx=0;exitDy=0;entryX=0.5;entryY=0;entryDx=0;entryDy=0;fontSize=11;fontColor=#143642;strokeColor=#A8201A;fillColor=#FAE5C7;" parent="OOd3J3-Gxl5Cu8NG0Uni-1" source="GCGXlIYydK_MN56B1ds3-0" target="jfCumX3kVW6e_XWRjReg-0" edge="1">
          <mxGeometry relative="1" as="geometry" />
        </mxCell>
        <mxCell id="GCGXlIYydK_MN56B1ds3-0" value="" style="ellipse;whiteSpace=wrap;html=1;aspect=fixed;rounded=0;sketch=0;fontColor=#143642;strokeColor=#0F8B8D;fillColor=#FAE5C7;" parent="OOd3J3-Gxl5Cu8NG0Uni-1" vertex="1">
          <mxGeometry x="-435.25" y="190" width="20" height="20" as="geometry" />
        </mxCell>
        <mxCell id="GCGXlIYydK_MN56B1ds3-4" style="edgeStyle=orthogonalEdgeStyle;curved=0;rounded=1;sketch=0;orthogonalLoop=1;jettySize=auto;html=1;exitX=0.5;exitY=1;exitDx=0;exitDy=0;entryX=0.5;entryY=0;entryDx=0;entryDy=0;fontSize=11;fontColor=#143642;strokeColor=#A8201A;fillColor=#FAE5C7;" parent="OOd3J3-Gxl5Cu8NG0Uni-1" source="GCGXlIYydK_MN56B1ds3-2" target="GCGXlIYydK_MN56B1ds3-0" edge="1">
          <mxGeometry relative="1" as="geometry" />
        </mxCell>
        <mxCell id="GCGXlIYydK_MN56B1ds3-2" value="&lt;b&gt;Open &lt;/b&gt;&lt;i&gt;message_queue&lt;/i&gt;" style="rounded=0;whiteSpace=wrap;html=1;sketch=0;fontColor=#143642;strokeColor=#0F8B8D;fillColor=#FAE5C7;" parent="OOd3J3-Gxl5Cu8NG0Uni-1" vertex="1">
          <mxGeometry x="-500.75" y="130" width="150.25" height="40" as="geometry" />
        </mxCell>
      </root>
    </mxGraphModel>
  </diagram>
</mxfile>
